<?xml version="1.0" standalone="no"?>
<!DOCTYPE svg PUBLIC "-//W3C//DTD SVG 20010904//EN"
 "http://www.w3.org/TR/2001/REC-SVG-20010904/DTD/svg10.dtd">
<svg version="1.0" xmlns="http://www.w3.org/2000/svg"
 width="3264.000000pt" height="3264.000000pt" viewBox="0 0 3264.000000 3264.000000"
 preserveAspectRatio="xMidYMid meet">
<metadata>
Created by potrace 1.14, written by Peter Selinger 2001-2017
</metadata>
<g transform="translate(0.000000,3264.000000) scale(0.100000,-0.100000)"
fill="#000000" stroke="none">
<path d="M22691 31069 c-10 -24 -78 -176 -150 -337 -72 -162 -131 -304 -131
-316 0 -13 8 -30 18 -38 9 -8 150 -86 312 -173 631 -339 948 -519 1324 -753
834 -519 1583 -1070 2216 -1632 377 -334 1036 -991 1320 -1315 776 -884 1366
-1722 1905 -2705 117 -214 408 -792 469 -935 22 -49 55 -123 73 -164 56 -120
237 -545 302 -709 326 -816 505 -1366 721 -2217 169 -665 253 -1163 285 -1705
9 -135 22 -321 30 -415 30 -353 50 -765 61 -1240 5 -256 3 -311 -15 -470 -11
-99 -25 -265 -31 -370 -23 -426 -123 -1208 -174 -1370 -42 -132 -106 -209
-213 -257 -44 -20 -74 -23 -323 -30 -154 -5 -872 -6 -1630 -1 -1641 10 -1624
10 -1730 -6 -424 -64 -720 -362 -720 -726 0 -293 206 -566 490 -653 156 -48
126 -47 2475 -47 1762 0 2219 3 2252 13 59 18 98 61 122 134 23 73 245 1168
296 1463 64 371 91 583 125 985 67 801 84 1512 49 2100 -25 434 -100 1295
-125 1438 -40 232 -347 1606 -389 1748 -72 236 -477 1443 -543 1619 -101 266
-207 519 -374 894 -81 184 -148 338 -148 343 0 5 -5 14 -10 21 -6 7 -84 158
-173 337 -534 1063 -1086 1927 -1890 2960 -333 426 -410 511 -1088 1190 -770
772 -768 770 -1464 1301 -407 311 -584 440 -900 656 -609 416 -721 484 -1245
758 -380 200 -1295 655 -1329 661 -29 6 -32 3 -50 -37z"/>
<path d="M17425 30003 c-150 -18 -352 -88 -484 -168 -378 -229 -599 -671 -551
-1103 33 -301 170 -559 399 -755 254 -215 308 -285 333 -426 6 -35 13 -663 17
-1646 l6 -1590 22 -40 c31 -59 71 -92 238 -201 448 -291 831 -524 862 -524 19
0 101 74 357 323 789 768 1178 1132 1258 1180 106 63 168 77 408 92 265 17
366 40 525 119 130 65 217 129 310 227 215 228 327 540 285 795 -54 339 -308
676 -623 829 -343 165 -763 120 -1076 -116 -234 -176 -370 -447 -371 -737 0
-51 10 -154 21 -230 37 -241 21 -318 -100 -466 -315 -389 -721 -780 -1061
-1023 -98 -70 -121 -79 -159 -64 -33 14 -44 31 -66 106 -55 192 -56 196 -67
1015 -7 514 -7 951 -1 1330 9 534 11 568 31 622 47 130 118 215 314 375 204
166 264 236 347 400 73 144 121 357 121 535 0 498 -313 930 -788 1087 -152 51
-357 73 -507 54z"/>
<path d="M14735 29914 c-38 -8 -108 -34 -155 -56 -70 -33 -100 -56 -170 -127
-94 -95 -147 -185 -177 -301 -21 -85 -21 -235 1 -319 60 -224 239 -400 466
-457 87 -22 259 -15 350 15 189 61 346 216 417 413 24 64 27 88 27 203 1 107
-3 142 -21 200 -42 133 -139 261 -261 341 -128 86 -325 122 -477 88z"/>
<path d="M19868 29105 c-164 -60 -218 -253 -105 -381 23 -26 59 -55 82 -65 49
-23 161 -25 209 -5 49 20 116 85 137 131 56 121 -12 275 -140 321 -47 17 -136
16 -183 -1z"/>
<path d="M22313 29076 c-268 -51 -511 -201 -674 -415 -65 -86 -142 -243 -175
-356 -37 -128 -45 -357 -16 -495 45 -216 134 -381 292 -540 147 -149 283 -232
464 -285 135 -39 216 -48 366 -42 157 6 255 28 388 85 488 211 746 739 612
1257 -25 95 -112 278 -169 355 -158 210 -370 353 -628 421 -102 27 -354 35
-460 15z"/>
<path d="M12824 27456 c-310 -71 -524 -332 -524 -641 0 -284 191 -541 463
-624 302 -92 633 51 772 334 49 99 66 174 66 290 0 116 -17 191 -66 290 -79
161 -222 281 -400 337 -81 25 -233 32 -311 14z"/>
<path d="M24837 27405 c-346 -66 -622 -279 -772 -598 -66 -140 -86 -226 -92
-403 -4 -119 -2 -169 12 -235 42 -211 128 -378 270 -528 207 -218 470 -331
772 -331 478 0 896 326 1020 795 23 88 26 119 26 260 0 142 -3 172 -26 260
-102 382 -387 664 -775 766 -103 28 -325 35 -435 14z"/>
<path d="M4289 26825 c-4 -11 -98 -126 -210 -255 -481 -557 -635 -757 -1016
-1315 -589 -862 -1063 -1680 -1403 -2419 -298 -650 -417 -956 -634 -1629 -150
-466 -250 -843 -382 -1437 -37 -168 -71 -307 -76 -308 -4 -2 -6 -8 -3 -12 3
-5 -21 -125 -54 -267 -73 -319 -93 -425 -126 -673 -14 -107 -53 -328 -86 -490
-74 -369 -86 -460 -99 -757 -41 -989 -45 -1490 -16 -1863 10 -124 19 -322 21
-441 3 -250 6 -285 46 -559 47 -327 84 -527 164 -887 68 -313 95 -437 220
-1038 171 -818 451 -1664 850 -2565 305 -690 517 -1121 810 -1646 146 -260
238 -409 356 -569 52 -71 136 -188 186 -260 544 -782 637 -906 862 -1154 171
-187 259 -290 400 -465 79 -97 187 -225 240 -283 53 -57 103 -113 111 -124 8
-10 204 -205 436 -432 405 -398 590 -570 742 -687 39 -30 71 -61 72 -67 0 -7
6 -13 13 -13 6 0 39 -23 72 -52 353 -302 1343 -1025 1710 -1249 132 -80 353
-220 491 -310 291 -191 282 -186 784 -447 669 -347 677 -351 1359 -624 746
-299 1027 -398 1526 -542 451 -129 892 -240 1280 -320 121 -25 252 -53 290
-61 111 -23 550 -100 920 -160 187 -31 408 -69 491 -85 237 -46 321 -58 614
-85 151 -14 349 -34 440 -46 217 -26 447 -34 645 -20 167 11 557 35 855 51
219 12 335 27 780 100 425 70 519 84 760 110 294 33 467 64 855 156 310 74
615 142 940 209 149 31 347 76 440 101 654 174 1757 626 2573 1053 117 61 219
111 226 111 8 0 16 4 18 9 2 5 129 77 283 161 699 382 1288 736 1685 1013 429
300 1171 896 1572 1264 293 270 801 784 1080 1093 450 500 888 1101 1385 1900
473 760 649 1066 892 1550 222 441 290 585 421 895 54 127 123 288 154 358
114 258 138 366 113 492 -88 430 -511 545 -827 224 -116 -117 -158 -193 -285
-509 -412 -1021 -717 -1632 -1213 -2430 -479 -769 -940 -1391 -1506 -2030
-166 -188 -704 -723 -926 -922 -676 -605 -1373 -1136 -2135 -1624 -283 -181
-726 -444 -747 -444 -10 0 -18 -4 -18 -9 0 -23 -857 -462 -1230 -631 -542
-245 -984 -418 -1515 -595 -557 -186 -962 -294 -1650 -439 -220 -47 -485 -103
-588 -126 -436 -95 -676 -109 -892 -54 -307 79 -479 349 -410 643 26 110 71
187 160 276 60 61 98 89 155 117 42 20 268 94 515 168 603 181 785 246 1147
409 639 287 1299 682 1933 1156 139 104 281 201 320 220 112 54 213 73 472 90
298 19 593 73 968 176 157 43 470 141 520 164 17 7 89 37 160 65 1104 446
2076 1222 3035 2425 704 882 1202 1728 1525 2588 122 327 153 559 100 767 -24
93 -94 234 -163 326 -186 250 -430 364 -757 351 -193 -7 -341 -56 -491 -162
-157 -112 -251 -254 -407 -615 -302 -696 -520 -1123 -764 -1495 -505 -768
-1206 -1445 -1898 -1831 -490 -273 -1142 -488 -1670 -549 -405 -47 -1179 12
-1717 131 -698 154 -1499 484 -2408 992 -1277 712 -2459 1572 -3770 2741 -247
220 -267 239 -728 696 -956 947 -1400 1435 -2053 2255 -385 483 -530 678 -592
798 -56 108 -59 117 -55 172 5 70 43 139 137 243 174 195 1410 1441 3268 3292
2526 2518 2552 2543 2673 2624 52 34 112 67 133 73 37 11 44 9 135 -36 190
-95 268 -152 727 -535 589 -492 979 -856 1549 -1446 389 -403 776 -832 776
-862 0 -7 6 -13 13 -14 13 0 350 -402 468 -559 151 -201 279 -409 279 -456 0
-94 -229 -384 -583 -736 -263 -262 -401 -368 -479 -368 -98 0 -302 184 -1174
1055 -435 434 -623 637 -624 673 0 6 -4 12 -9 12 -5 0 -18 22 -30 50 -20 45
-21 61 -15 187 10 228 -15 385 -87 531 -85 174 -263 314 -476 374 -107 30
-303 30 -414 0 -272 -74 -477 -269 -544 -517 -26 -97 -31 -275 -11 -375 60
-295 287 -520 612 -605 79 -21 247 -38 303 -32 54 6 143 -19 213 -60 126 -74
547 -488 1083 -1063 192 -206 377 -405 411 -441 34 -37 97 -111 140 -164 114
-141 114 -140 -64 -363 -100 -126 -529 -568 -1163 -1197 -517 -512 -659 -644
-781 -717 -95 -58 -114 -59 -195 -4 -133 89 -233 179 -668 598 -666 642 -920
910 -1013 1068 l-27 45 -1 300 c0 336 -3 355 -74 500 -89 183 -252 318 -476
394 -187 63 -377 43 -574 -60 -347 -180 -506 -598 -370 -971 92 -253 296 -422
580 -482 41 -8 149 -20 240 -25 167 -10 256 -29 267 -57 3 -8 11 -14 18 -14
48 0 317 -262 1136 -1106 490 -504 569 -597 569 -669 0 -30 -44 -114 -95 -181
-94 -123 -992 -1080 -1284 -1369 -45 -44 -81 -87 -81 -96 0 -37 241 -264 334
-314 l35 -19 42 30 c68 47 888 870 1344 1349 697 732 3498 3521 3688 3670 44
35 108 78 143 95 74 36 120 36 245 0 70 -20 80 -27 114 -71 95 -125 80 -263
-47 -434 -74 -100 -374 -411 -739 -765 -521 -507 -845 -826 -1774 -1751 -467
-465 -1012 -1000 -1210 -1189 -491 -469 -1305 -1272 -1305 -1287 0 -7 243
-195 540 -418 297 -223 540 -410 540 -415 0 -6 5 -10 11 -10 12 0 416 -248
424 -260 3 -5 40 28 82 73 271 287 676 710 973 1013 612 627 1812 1846 2280
2319 461 465 576 585 1092 1135 375 400 394 418 412 400 8 -8 58 -130 111
-270 53 -140 99 -258 101 -262 2 -3 -15 -15 -39 -27 -40 -20 -206 -152 -312
-249 -28 -26 -226 -227 -440 -447 -214 -220 -829 -841 -1365 -1380 -537 -539
-1111 -1122 -1275 -1295 -165 -173 -486 -503 -715 -733 -369 -372 -422 -422
-478 -448 l-63 -31 93 -55 c288 -170 676 -368 965 -492 79 -33 151 -65 160
-71 42 -24 506 -177 739 -244 641 -183 1120 -239 1854 -216 542 17 771 64
1222 253 143 60 370 200 528 328 212 170 455 425 625 654 388 523 706 1347
804 2082 56 418 52 1102 -9 1658 -58 526 -178 1105 -335 1625 -25 80 -52 170
-61 200 -9 30 -20 64 -25 75 -4 11 -43 112 -85 225 -412 1105 -1076 2249
-1967 3390 -37 47 -67 91 -67 98 0 6 -4 12 -9 12 -5 0 -85 96 -178 213 -432
541 -818 981 -1321 1503 -383 399 -629 630 -1112 1049 -151 131 -288 251 -305
266 -281 256 -838 711 -1230 1004 -1253 937 -2447 1579 -3765 2026 -553 188
-850 260 -1520 368 -709 115 -1612 131 -2235 40 -698 -103 -1361 -338 -1956
-695 -128 -78 -301 -195 -306 -209 -1 -6 36 -22 85 -38 142 -45 295 -141 505
-316 162 -136 278 -257 316 -331 34 -65 34 -66 17 -102 -55 -115 -180 -187
-252 -145 -12 7 -67 55 -121 107 l-100 95 -44 -115 c-23 -63 -80 -189 -124
-280 -73 -147 -81 -169 -73 -198 16 -59 -6 -110 -76 -177 -70 -66 -108 -130
-250 -413 -103 -207 -154 -326 -205 -486 -78 -245 -176 -727 -159 -779 17 -47
4 -109 -34 -164 -33 -48 -35 -56 -42 -164 -17 -292 -26 -605 -26 -956 0 -370
-1 -384 -20 -403 -11 -11 -26 -20 -34 -20 -51 0 -801 -72 -845 -81 -48 -10
-55 -9 -71 8 -25 25 -37 131 -52 464 -13 305 0 835 27 1044 20 153 20 149 -19
167 -87 42 -146 124 -146 203 0 53 16 89 57 126 31 29 104 69 126 69 8 0 26 9
41 21 28 22 25 14 122 359 101 362 284 878 385 1086 49 100 110 183 153 206
11 6 59 22 106 34 l85 22 -61 1 c-161 2 -264 91 -264 228 l0 47 -52 -68 c-208
-269 -377 -551 -499 -831 -34 -77 -71 -162 -84 -190 -13 -27 -37 -93 -55 -145
-18 -52 -38 -104 -45 -115 -6 -11 -15 -35 -18 -53 -4 -18 -17 -56 -30 -85 -13
-28 -28 -70 -34 -92 -6 -22 -31 -110 -56 -196 -74 -255 -132 -555 -158 -819
-16 -158 -16 -1174 0 -1410 12 -168 34 -364 51 -455 5 -27 12 -68 14 -90 18
-157 127 -678 202 -965 331 -1270 971 -2633 1857 -3959 108 -162 221 -348 253
-416 17 -35 24 -68 24 -112 0 -87 -46 -170 -185 -330 -234 -272 -700 -724
-839 -815 -116 -75 -220 -89 -446 -59 -186 25 -280 26 -391 5 -175 -33 -304
-85 -437 -177 -280 -193 -465 -610 -422 -950 26 -212 115 -398 265 -556 160
-169 341 -267 564 -306 247 -44 512 20 766 182 86 56 228 199 273 275 104 176
142 333 142 585 0 228 20 295 125 413 74 83 855 830 933 891 105 84 207 143
235 135 26 -6 278 -258 427 -426 154 -174 490 -576 548 -655 67 -92 109 -175
117 -228 12 -81 -52 -176 -312 -465 -255 -283 -459 -496 -759 -792 -326 -322
-456 -439 -521 -471 -78 -38 -176 -38 -363 2 -139 30 -172 33 -315 33 -140 -1
-172 -4 -255 -26 -283 -76 -500 -217 -652 -422 -275 -371 -290 -923 -35 -1301
132 -195 445 -409 697 -477 231 -62 560 -1 815 150 105 62 283 238 341 338
121 206 174 404 193 724 16 271 65 353 391 653 277 254 718 678 928 891 174
177 359 336 390 336 7 0 12 3 12 8 0 4 27 22 61 41 49 27 65 31 83 23 28 -13
173 -142 446 -397 118 -111 305 -285 415 -387 245 -226 543 -531 551 -564 10
-40 -2 -64 -81 -169 -143 -190 -270 -331 -545 -606 -426 -427 -568 -548 -683
-585 l-52 -16 -150 45 c-291 89 -417 113 -550 104 -257 -17 -532 -146 -730
-342 -170 -169 -294 -417 -340 -681 -20 -115 -19 -320 1 -420 69 -339 322
-656 647 -809 136 -64 227 -86 388 -92 291 -11 571 75 789 242 87 67 220 214
278 307 133 214 190 446 179 728 -6 167 1 222 43 305 35 72 102 145 270 296
69 61 274 255 455 429 442 424 524 499 589 539 72 43 133 64 165 56 14 -4 76
-40 137 -80 110 -73 180 -128 474 -370 758 -625 1768 -1347 2590 -1851 80 -48
147 -91 150 -94 3 -3 18 -11 34 -18 24 -11 27 -15 15 -23 -10 -6 -7 -9 14 -9
18 0 111 -48 250 -129 393 -228 705 -399 997 -544 157 -78 323 -167 370 -198
101 -68 240 -185 240 -202 0 -37 -217 -248 -360 -351 -244 -175 -943 -518
-1450 -711 -641 -243 -1272 -383 -2015 -445 -132 -11 -307 -27 -390 -36 -219
-24 -637 -7 -835 35 -25 6 -103 15 -175 21 -441 37 -1152 168 -1615 296 -827
230 -1794 685 -2660 1252 -674 441 -1442 1026 -1801 1371 -41 39 -76 71 -78
71 -11 0 -261 229 -420 385 -264 259 -535 558 -832 920 -210 255 -505 628
-601 760 -360 493 -782 1192 -1034 1710 -100 206 -354 790 -354 814 0 6 -7 22
-15 34 -18 27 -112 273 -206 534 -222 621 -425 1369 -574 2117 -44 223 -116
631 -114 642 1 5 -1 16 -4 24 -6 14 -56 416 -91 730 -37 328 -41 447 -40 1225
1 847 3 882 65 1410 49 416 79 598 175 1058 92 443 165 686 374 1252 44 119
53 154 57 230 9 154 -34 283 -124 373 -111 110 -289 139 -432 70 -62 -30 -140
-109 -183 -188 -118 -212 -285 -731 -407 -1260 -168 -727 -261 -1341 -302
-1975 -16 -258 -23 -1593 -10 -1892 24 -556 85 -1040 198 -1588 25 -121 46
-229 48 -240 4 -22 72 -337 105 -485 96 -428 261 -1003 455 -1582 54 -163 88
-281 92 -321 14 -158 -55 -350 -170 -474 -131 -140 -321 -185 -512 -121 -131
43 -264 149 -346 274 -92 141 -306 767 -459 1339 -101 379 -300 1317 -374
1760 -56 334 -113 812 -122 1030 -2 50 -13 230 -24 400 -11 171 -25 382 -31
470 -5 88 -17 234 -25 325 -16 186 -18 589 -4 755 5 61 25 277 44 480 19 204
47 514 61 690 14 176 32 370 41 430 22 157 96 554 149 805 26 118 50 238 55
265 13 79 106 481 161 695 117 456 196 700 399 1225 304 790 400 1010 677
1565 598 1197 1324 2293 2192 3310 90 104 167 190 172 190 5 0 9 12 9 26 0 21
-3 24 -21 19 -13 -4 -27 -1 -39 10 -10 9 -23 14 -28 11 -5 -3 -15 1 -22 9 -7
8 -21 15 -32 15 -10 0 -21 6 -24 14 -13 33 -86 49 -249 57 -165 8 -214 18
-301 62 -61 31 -87 58 -82 88 2 16 -4 27 -18 34 -18 9 -19 13 -8 23 8 7 14 22
14 34 0 11 7 26 16 32 10 8 14 23 12 41 -3 25 -4 27 -9 10z m7090 -2351 c18
-15 32 -38 35 -57 8 -47 25 -445 28 -645 l3 -174 -33 -29 c-27 -24 -41 -29
-82 -29 -67 0 -115 21 -135 59 -16 32 -50 396 -62 678 -8 193 10 222 144 223
62 0 75 -3 102 -26z m985 -5 c40 -19 47 -55 30 -171 -8 -57 -30 -242 -48 -411
-38 -353 -35 -345 -137 -372 -78 -21 -97 -19 -131 16 l-31 30 7 127 c4 70 20
262 37 427 31 311 37 337 82 355 32 13 162 12 191 -1z m1048 -130 c49 -13 73
-55 64 -113 -16 -102 -120 -578 -143 -651 -33 -104 -79 -197 -113 -230 -26
-25 -31 -26 -63 -16 -41 14 -122 73 -130 95 -7 18 73 419 136 676 37 155 45
178 74 206 42 43 102 54 175 33z m-3128 -99 c14 -5 32 -20 41 -34 18 -27 135
-407 135 -438 0 -55 -44 -95 -127 -117 -47 -13 -94 0 -124 35 -25 28 -142 429
-135 459 19 74 132 125 210 95z m4082 -245 c55 -52 50 -94 -47 -375 -45 -129
-106 -309 -136 -400 -60 -178 -82 -213 -131 -213 -40 0 -119 48 -143 86 -11
19 -19 50 -19 77 0 93 132 533 206 683 50 104 89 147 150 167 59 20 75 17 120
-25z m829 -276 c61 -23 95 -62 95 -111 0 -26 -269 -807 -296 -860 -20 -39 -53
-58 -99 -58 -46 0 -112 28 -138 57 -41 47 -37 65 118 508 90 258 155 429 168
444 42 45 73 50 152 20z m1005 -561 c25 -13 51 -35 59 -49 14 -25 6 -44 -158
-415 -95 -214 -182 -399 -194 -411 -25 -28 -56 -29 -106 -3 -74 37 -108 106
-97 197 4 36 36 122 97 261 153 347 171 376 252 417 63 31 90 31 147 3z
m-4232 -259 c28 -6 52 -14 52 -18 0 -4 -743 -751 -1650 -1661 -1434 -1438
-1652 -1652 -1659 -1635 -5 11 -12 212 -16 446 -6 334 -5 434 5 465 13 40 38
70 264 324 392 441 719 768 1301 1305 338 311 607 561 750 697 38 36 47 39
164 59 68 11 187 24 265 29 164 9 448 3 524 -11z m5247 -297 l290 -207 3 -40
c3 -38 -10 -60 -189 -325 -297 -442 -298 -443 -365 -426 -29 8 -542 349 -561
374 -7 9 -13 25 -13 37 0 24 432 764 457 783 9 6 33 12 52 12 31 0 80 -32 326
-208z m-4541 143 c321 -79 543 -143 876 -254 519 -173 789 -290 778 -336 -5
-19 -4982 -4965 -4993 -4962 -28 9 -95 168 -197 467 -117 345 -208 688 -339
1279 l-43 195 114 105 c245 228 734 713 2126 2109 796 798 1450 1452 1453
1452 2 0 104 -25 225 -55z m2404 -908 c153 -86 1339 -781 1349 -790 8 -8 -115
-164 -188 -237 -41 -42 -222 -215 -404 -385 -288 -270 -1246 -1222 -1964
-1950 -130 -132 -279 -281 -331 -331 -52 -49 -106 -102 -120 -117 -14 -15 -89
-89 -167 -166 -79 -77 -143 -145 -144 -153 0 -7 -61 -65 -134 -128 -74 -63
-145 -134 -159 -157 -14 -23 -63 -74 -108 -115 -127 -113 -255 -243 -272 -277
-9 -17 -29 -37 -44 -45 -15 -8 -92 -80 -172 -161 -80 -81 -164 -164 -188 -183
-23 -19 -66 -64 -94 -100 -28 -35 -73 -78 -99 -94 -29 -17 -70 -59 -103 -101
-30 -40 -80 -97 -111 -127 -31 -30 -84 -89 -117 -130 -33 -41 -108 -122 -167
-180 -151 -150 -205 -209 -240 -265 -18 -28 -46 -56 -63 -65 -18 -8 -62 -51
-97 -95 -36 -44 -111 -126 -168 -182 -57 -56 -103 -106 -103 -112 0 -5 -9 -13
-21 -16 -17 -6 -49 -58 -49 -80 0 -14 35 -1 77 29 27 18 59 37 73 40 18 5 -2
-19 -69 -84 -52 -49 -100 -90 -106 -90 -20 0 -51 41 -181 245 -164 258 -365
592 -491 820 -103 184 -313 597 -313 614 0 5 1077 1087 2393 2404 2261 2264
2882 2874 2915 2862 7 -3 88 -47 180 -98z m3158 -89 c16 -13 254 -211 529
-442 538 -451 725 -623 725 -667 0 -28 -20 -51 -353 -401 -120 -127 -154 -158
-176 -158 -20 0 -166 115 -631 501 -333 275 -620 514 -637 530 -20 18 -33 40
-33 55 0 16 38 68 113 157 61 74 157 188 211 253 143 172 166 194 197 194 14
0 39 -10 55 -22z m2028 -1684 c9 -3 138 -137 287 -296 l270 -290 -3 -41 c-3
-40 -12 -49 -273 -294 -148 -140 -280 -256 -292 -259 -13 -4 -34 -3 -48 0 -15
4 -129 119 -295 296 -256 275 -270 292 -270 328 0 21 6 45 13 54 14 17 452
426 510 476 36 31 67 39 101 26z m1131 -1245 c82 -49 99 -170 34 -234 -65 -64
-623 -484 -652 -491 -65 -14 -140 24 -172 87 -21 39 -19 108 4 145 23 38 612
492 661 511 40 14 82 9 125 -18z m-13224 -562 c85 -56 88 -178 6 -231 -12 -8
-200 -64 -417 -125 -567 -157 -512 -145 -564 -122 -53 23 -77 56 -83 114 -6
51 14 98 53 124 33 21 886 261 935 262 22 1 49 -8 70 -22z m448 -1033 c38 -32
71 -104 71 -155 0 -74 -11 -80 -533 -299 -265 -111 -491 -200 -508 -200 -53 0
-89 27 -115 86 -31 71 -31 124 0 160 30 36 961 432 1018 433 25 1 46 -7 67
-25z m14366 -257 c51 -51 65 -99 44 -155 -12 -31 -56 -69 -289 -245 -365 -276
-382 -287 -434 -287 -116 0 -191 154 -115 237 23 25 593 457 634 481 11 6 42
12 69 12 44 0 53 -4 91 -43z m-13866 -870 c132 -255 274 -512 412 -742 59 -99
111 -188 114 -196 4 -10 -3 -27 -17 -42 -23 -25 -796 -537 -843 -559 -35 -16
-51 1 -144 156 -118 198 -246 440 -396 755 -111 231 -136 289 -133 319 3 42
-22 26 292 176 180 87 355 185 501 283 44 29 87 53 95 53 9 0 54 -76 119 -203z
m14472 -230 c78 -52 102 -165 48 -223 -13 -14 -158 -107 -323 -205 -258 -155
-304 -179 -340 -179 -105 0 -181 116 -139 211 19 42 32 52 332 232 343 205
355 209 422 164z m570 -1250 c44 -29 84 -123 74 -174 -13 -71 -34 -83 -405
-219 -198 -74 -360 -128 -381 -128 -19 0 -48 8 -63 17 -36 24 -76 110 -76 164
0 81 14 89 400 233 192 71 361 129 381 129 22 1 49 -8 70 -22z m-13936 -231
c76 -50 106 -153 63 -216 -31 -46 -868 -637 -914 -646 -18 -3 -49 -1 -68 6
-44 14 -104 82 -112 128 -8 43 9 102 38 129 40 36 838 594 871 609 37 16 88
12 122 -10z m568 -843 c8 -10 62 -88 119 -174 183 -274 367 -508 605 -766 73
-79 103 -104 136 -115 38 -12 43 -18 57 -61 15 -52 49 -95 233 -293 60 -64
165 -185 235 -268 69 -83 197 -223 284 -310 104 -104 158 -165 156 -177 -2
-10 -155 -175 -342 -368 -249 -258 -344 -351 -361 -351 -25 0 -134 112 -436
450 -515 576 -1059 1227 -1321 1580 -151 204 -153 207 -142 229 5 10 142 130
304 265 162 135 327 275 365 311 39 35 75 64 81 65 6 0 18 -8 27 -17z m13904
-216 c42 -41 57 -153 27 -196 -9 -13 -31 -29 -48 -36 -52 -21 -942 -130 -973
-119 -45 16 -67 57 -71 134 -4 66 -3 71 26 100 17 16 36 30 44 31 7 0 211 27
453 59 242 32 458 57 479 55 25 -2 48 -12 63 -28z m-259 -1127 c229 -17 400
-38 432 -55 38 -20 60 -63 60 -119 0 -36 -6 -52 -29 -78 -27 -30 -34 -33 -102
-36 -41 -2 -126 4 -189 13 -63 9 -144 20 -180 25 -36 5 -190 12 -342 16 -277
7 -278 7 -300 31 -19 21 -23 36 -23 90 0 61 3 67 33 94 l32 29 231 0 c127 0
296 -5 377 -10z m-1428 -1316 c-71 -400 -132 -616 -247 -870 -245 -545 -680
-1014 -1218 -1313 -332 -185 -772 -316 -1134 -338 -102 -6 -103 -6 -92 15 6
11 70 76 142 144 72 67 557 557 1077 1088 1287 1313 1495 1521 1504 1512 5 -5
-10 -111 -32 -238z m-9883 -291 c37 -17 73 -65 73 -97 0 -40 -74 -151 -278
-420 -141 -186 -225 -289 -250 -304 -31 -19 -48 -22 -99 -20 -70 4 -109 26
-131 72 -12 24 -12 34 3 72 21 54 158 262 217 329 24 28 81 102 127 165 46 63
98 130 115 149 61 66 152 88 223 54z m14473 -321 c122 -75 121 -255 -3 -326
-59 -34 -108 -40 -170 -22 -120 35 -181 161 -128 264 59 114 190 151 301 84z
m-13642 -209 c44 -35 68 -94 58 -143 -8 -43 -470 -674 -517 -707 -22 -16 -46
-23 -78 -23 -127 0 -194 133 -122 241 17 24 128 177 248 339 162 219 227 300
253 313 49 25 111 18 158 -20z m-9956 -283 c44 -13 93 -52 113 -91 19 -36 19
-122 1 -158 -22 -42 -81 -89 -128 -102 -153 -41 -285 107 -218 246 43 88 137
131 232 105z m10778 -496 c431 -393 868 -733 1498 -1163 138 -95 252 -174 252
-177 0 -10 -514 -800 -528 -811 -36 -29 -68 -14 -243 110 -232 164 -409 294
-614 451 -486 372 -1087 875 -1099 918 -3 13 2 33 12 49 32 50 597 718 607
718 6 0 57 -43 115 -95z m-9885 -1105 c122 -33 179 -162 124 -277 -59 -121
-241 -138 -322 -30 -47 62 -55 142 -21 209 18 36 79 87 112 95 15 3 32 7 37 9
18 6 29 5 70 -6z m20680 -233 c140 -69 575 -370 682 -472 25 -23 43 -50 43
-62 0 -27 -385 -437 -410 -437 -10 0 -71 59 -137 130 -66 72 -219 225 -339
340 -257 246 -274 265 -274 314 0 30 9 44 58 92 149 144 233 165 377 95z
m-8003 -662 c172 -103 322 -195 332 -205 11 -10 19 -31 19 -46 0 -15 -42 -113
-93 -218 -50 -104 -135 -287 -187 -405 -53 -118 -100 -220 -105 -227 -5 -6
-20 -14 -34 -17 -21 -6 -65 16 -233 115 -209 124 -514 319 -540 344 -12 12 1
38 87 182 55 92 152 262 216 376 131 237 167 287 201 287 14 0 165 -84 337
-186z m7193 -184 c22 -11 57 -37 76 -57 58 -61 491 -653 522 -712 51 -100 32
-194 -52 -258 -45 -35 -86 -42 -113 -20 -9 6 -166 215 -349 462 -241 326 -334
459 -337 482 -3 27 2 39 29 64 66 61 148 76 224 39z m-5824 -456 c441 -186
720 -286 974 -349 213 -53 1060 -204 1200 -214 66 -5 157 -6 203 -3 71 4 82 2
82 -12 0 -14 29 -16 298 -16 409 0 709 20 1081 72 137 19 155 19 165 6 6 -8
80 -268 165 -577 139 -509 152 -564 138 -578 -18 -18 -508 -92 -776 -117 -506
-47 -1104 -45 -1501 5 -240 30 -765 141 -1110 235 -466 126 -911 297 -1437
550 -135 64 -173 87 -173 102 0 18 416 913 446 960 8 12 20 22 28 22 7 0 105
-39 217 -86z m5066 -144 c18 -10 41 -37 52 -58 28 -56 322 -790 334 -835 7
-29 6 -47 -8 -82 -39 -104 -183 -136 -257 -58 -37 40 -360 843 -361 899 -1 57
29 104 83 132 54 27 115 28 157 2z m-12778 -3153 c102 -68 119 -201 38 -294
-66 -75 -164 -93 -255 -47 -155 77 -135 300 33 363 49 18 141 7 184 -22z"/>
<path d="M15073 26662 c-264 -94 -342 -431 -146 -627 148 -149 388 -149 536 0
185 185 128 503 -111 613 -76 35 -203 41 -279 14z"/>
<path d="M10370 26574 c-88 -38 -144 -125 -144 -224 0 -79 25 -132 86 -184 48
-41 91 -56 163 -56 67 0 122 27 172 84 107 122 66 310 -82 377 -49 23 -146 24
-195 3z"/>
<path d="M7197 25910 c-289 -52 -512 -223 -633 -485 -53 -114 -68 -191 -68
-340 1 -111 5 -143 28 -218 47 -157 118 -271 233 -377 168 -154 376 -229 606
-217 230 11 390 81 553 242 167 165 244 348 244 580 0 242 -82 431 -262 600
-107 101 -215 160 -364 200 -69 19 -268 28 -337 15z"/>
<path d="M22920 25214 c-207 -38 -371 -113 -534 -245 -107 -87 -193 -191 -256
-310 -73 -141 -98 -249 -110 -477 -13 -244 -35 -303 -183 -491 -33 -42 -394
-411 -801 -821 -408 -410 -759 -766 -780 -792 -29 -36 -37 -54 -32 -71 13 -53
396 -422 465 -448 31 -12 40 -6 230 161 226 200 352 320 897 857 269 265 516
503 549 529 33 26 88 60 122 76 60 28 68 30 165 25 57 -2 165 -12 240 -22 131
-18 143 -18 257 -2 271 38 488 143 666 322 138 137 232 307 270 490 20 95 23
281 6 375 -73 395 -376 715 -779 822 -75 19 -327 34 -392 22z"/>
<path d="M27103 24630 c-216 -56 -394 -228 -448 -431 -21 -77 -19 -211 4 -302
47 -181 113 -309 356 -682 334 -514 577 -974 840 -1590 311 -727 502 -1341
648 -2070 55 -276 53 -318 -18 -500 -135 -342 -160 -667 -75 -975 27 -96 124
-297 186 -380 206 -282 468 -450 768 -496 276 -43 620 51 871 236 209 154 375
397 442 645 24 89 26 119 27 275 1 196 -11 271 -69 447 -93 279 -238 466 -489
630 -173 114 -201 137 -251 204 -54 73 -62 99 -130 419 -155 727 -302 1198
-570 1825 -297 694 -562 1213 -968 1900 -238 401 -329 531 -453 644 -204 186
-448 259 -671 201z m407 -542 c116 -59 122 -200 13 -274 -68 -45 -154 -39
-218 17 -88 77 -63 209 50 260 54 25 102 24 155 -3z m509 -866 c105 -53 134
-193 58 -279 -70 -79 -185 -86 -260 -15 -42 39 -57 75 -57 132 0 28 6 63 14
78 18 35 64 78 96 91 40 16 112 13 149 -7z m519 -864 c40 -25 72 -84 72 -136
0 -80 -86 -162 -170 -162 -84 0 -160 71 -162 152 -2 137 142 219 260 146z
m631 -1966 c14 -10 37 -34 49 -53 20 -29 23 -44 20 -96 -4 -70 -23 -103 -78
-140 -43 -30 -119 -31 -166 -3 -58 36 -90 136 -65 203 15 40 71 96 105 107 43
13 104 5 135 -18z m278 -833 c46 -22 103 -90 103 -123 0 -63 -107 -146 -187
-146 -35 0 -50 7 -84 37 -22 20 -49 54 -60 76 l-20 39 26 33 c44 58 112 103
159 104 11 1 39 -8 63 -20z"/>
<path d="M19770 23685 c-96 -31 -180 -139 -180 -233 0 -163 176 -263 335 -188
55 25 110 81 131 132 30 71 11 178 -39 232 -55 60 -163 84 -247 57z"/>
<path d="M5551 23605 c-142 -40 -225 -147 -225 -290 0 -118 57 -210 162 -262
111 -54 256 -31 345 55 150 144 118 379 -63 469 -79 40 -146 48 -219 28z"/>
<path d="M25250 23344 c-301 -65 -543 -213 -681 -416 -132 -194 -191 -405
-208 -751 -8 -170 -10 -180 -39 -240 -84 -168 -515 -603 -668 -674 -82 -38
-173 -41 -361 -13 -241 36 -398 17 -578 -70 -223 -108 -387 -310 -446 -549
-18 -71 -20 -104 -16 -215 6 -155 23 -228 82 -351 99 -205 271 -345 535 -437
92 -32 100 -33 255 -33 150 0 165 2 240 28 227 80 403 231 508 435 62 120 82
192 107 388 36 275 63 336 237 526 175 191 383 367 505 429 89 45 134 46 252
10 187 -59 285 -74 461 -75 177 0 250 13 382 64 296 114 516 351 610 657 25
81 27 102 27 263 1 154 -2 184 -22 255 -111 384 -444 701 -810 771 -93 18
-286 17 -372 -2z"/>
<path d="M8016 22691 c12 -12 186 -82 192 -77 5 6 -83 57 -126 72 -44 16 -80
18 -66 5z"/>
<path d="M4280 21841 c-162 -51 -281 -180 -325 -348 -61 -234 83 -491 321
-573 361 -125 720 184 643 552 -35 170 -170 316 -336 368 -84 26 -224 26 -303
1z"/>
<path d="M25965 20058 c-373 -25 -721 -282 -860 -633 -32 -81 -73 -244 -108
-432 -51 -271 -147 -404 -653 -908 -166 -165 -304 -310 -308 -323 -9 -29 -14
-22 211 -319 101 -134 190 -243 197 -243 26 0 303 242 641 561 232 219 284
263 352 297 77 40 120 44 240 21 436 -82 827 17 1088 276 402 398 406 1015 10
1410 -216 217 -489 315 -810 293z"/>
<path d="M4806 19145 c-98 -20 -159 -42 -256 -90 -537 -268 -712 -954 -369
-1450 68 -98 205 -228 305 -288 96 -57 241 -110 346 -127 112 -18 332 -8 428
20 348 101 605 363 702 718 29 104 31 362 5 466 -90 358 -349 628 -702 732
-76 22 -114 27 -240 30 -104 2 -171 -1 -219 -11z"/>
<path d="M27444 17016 c-164 -31 -288 -80 -410 -161 -134 -89 -227 -193 -416
-459 -29 -40 -67 -78 -95 -96 -91 -58 -109 -60 -542 -60 -622 0 -1071 -11
-1071 -26 0 -12 166 -366 250 -534 60 -120 107 -188 150 -216 l37 -24 569 -6
c608 -6 622 -7 724 -59 25 -12 113 -74 195 -137 240 -183 373 -250 568 -284
305 -54 678 67 922 298 100 94 156 169 214 285 141 282 141 600 1 889 -140
289 -399 500 -705 575 -105 26 -297 33 -391 15z"/>
<path d="M17175 15696 c-331 -82 -441 -496 -194 -731 134 -128 313 -157 483
-77 274 130 331 496 108 704 -107 101 -255 139 -397 104z"/>
<path d="M5820 15569 c-461 -41 -829 -358 -951 -816 -27 -99 -36 -308 -20
-425 33 -229 162 -475 333 -634 129 -120 301 -214 476 -261 85 -23 117 -26
262 -27 143 -1 177 2 254 23 403 106 692 395 797 796 21 78 24 113 23 260 0
152 -3 181 -27 268 -55 203 -161 382 -312 525 -226 213 -529 319 -835 291z"/>
<path d="M29784 15439 c-92 -26 -180 -121 -210 -227 -42 -142 34 -305 172
-373 41 -20 64 -24 139 -24 79 0 97 4 142 27 115 61 177 162 178 288 0 66 -5
85 -33 143 -57 115 -160 178 -290 176 -37 0 -81 -5 -98 -10z"/>
<path d="M12994 13886 c-89 -39 -154 -139 -154 -236 1 -140 111 -250 253 -250
102 0 180 48 224 138 66 135 9 289 -130 347 -45 18 -151 19 -193 1z"/>
<path d="M14961 12656 c-51 -17 -95 -56 -123 -110 -30 -59 -22 -151 17 -208
101 -142 323 -106 371 60 19 64 13 109 -22 169 -46 79 -152 118 -243 89z"/>
<path d="M5031 12439 c-123 -21 -247 -112 -304 -225 -120 -238 22 -511 288
-554 156 -25 337 63 420 204 101 173 52 402 -110 510 -88 59 -192 82 -294 65z"/>
<path d="M13465 5864 c-213 -45 -413 -212 -506 -421 -16 -37 -34 -77 -39 -88
-19 -43 -33 -167 -27 -252 12 -200 125 -436 260 -543 60 -48 153 -95 227 -116
61 -16 342 -36 350 -25 3 5 20 11 38 14 66 13 179 66 258 120 160 111 260 246
299 407 20 84 32 303 17 333 -6 12 -20 51 -31 87 -75 234 -314 435 -579 486
-92 17 -176 17 -267 -2z"/>
</g>
</svg>
