<?xml version="1.0" encoding="UTF-8" standalone="no"?>
<!-- Created with Inkscape (http://www.inkscape.org/) -->

<svg
   width="210mm"
   height="297mm"
   viewBox="0 0 210 297"
   version="1.1"
   id="svg1"
   inkscape:version="1.3.2 (091e20ef0f, 2023-11-25, custom)"
   sodipodi:docname="logo_morse.svg"
   xmlns:inkscape="http://www.inkscape.org/namespaces/inkscape"
   xmlns:sodipodi="http://sodipodi.sourceforge.net/DTD/sodipodi-0.dtd"
   xmlns="http://www.w3.org/2000/svg"
   xmlns:svg="http://www.w3.org/2000/svg">
  <sodipodi:namedview
     id="namedview1"
     pagecolor="#ffffff"
     bordercolor="#666666"
     borderopacity="1.0"
     inkscape:showpageshadow="2"
     inkscape:pageopacity="0.0"
     inkscape:pagecheckerboard="0"
     inkscape:deskcolor="#d1d1d1"
     inkscape:document-units="mm"
     inkscape:zoom="2.8028368"
     inkscape:cx="368.91196"
     inkscape:cy="510.19739"
     inkscape:window-width="1920"
     inkscape:window-height="1052"
     inkscape:window-x="1920"
     inkscape:window-y="0"
     inkscape:window-maximized="1"
     inkscape:current-layer="layer1" />
  <defs
     id="defs1" />
  <g
     inkscape:label="Layer 1"
     inkscape:groupmode="layer"
     id="layer1">
    <path
       id="path2"
       d="m 116.70457,143.01681 c -0.0116,0.0279 -0.0473,0.1143 -0.10654,0.25789 -0.0183,0.0445 -0.0388,0.0938 -0.0614,0.14887 -0.0236,0.0529 -0.0547,0.097 -0.0847,0.15275 -0.0635,0.1076 -0.12276,0.2346 -0.23177,0.37183 -0.0497,0.0695 -0.10231,0.14287 -0.15804,0.22013 -0.0642,0.0713 -0.13159,0.1464 -0.2025,0.22472 -0.0353,0.0392 -0.0713,0.0794 -0.1083,0.1203 -0.018,0.0162 -0.037,0.0335 -0.0554,0.0505 -0.42086,-0.43286 -1.00859,-0.70274 -1.66017,-0.70274 -1.27953,0 -2.31704,1.03752 -2.31704,2.31705 0,0.0963 0.008,0.1905 0.019,0.28363 -0.78494,0.17603 -1.65136,0.30021 -2.5834,0.37183 -0.77999,0.06 -1.60796,0.0794 -2.47262,0.0614 0.20603,-1.54234 0.30339,-3.06987 0.33514,-4.566 0.003,-0.15734 0.005,-0.31362 0.006,-0.47025 0.73731,-0.48296 1.44604,-0.97579 2.11984,-1.47673 1.79317,-1.33774 3.34575,-2.73685 4.62351,-4.14302 0.36583,0.35171 0.70344,0.70308 1.00788,1.05233 0.5334,0.61595 0.96838,1.22449 1.29964,1.80481 0.0416,0.0727 0.0829,0.14394 0.12347,0.21449 0.0374,0.072 0.0709,0.14429 0.10583,0.21484 0.067,0.14217 0.14147,0.27729 0.1898,0.41628 0.0519,0.13758 0.10865,0.26952 0.1531,0.3997 0.0381,0.13194 0.0755,0.25894 0.11113,0.3817 0.036,0.12277 0.0494,0.24448 0.0741,0.35913 0.0109,0.0579 0.0219,0.1143 0.0325,0.16933 0.006,0.0557 0.009,0.11042 0.013,0.16369 0.008,0.10654 0.0155,0.20814 0.0226,0.3048 -0.004,0.096 -0.007,0.18733 -0.0102,0.27341 0.002,0.17356 -0.0303,0.32208 -0.0476,0.45155 -0.0109,0.0642 -0.0159,0.12453 -0.0289,0.1778 -0.0148,0.0526 -0.0279,0.10054 -0.0395,0.14288 -0.0392,0.14393 -0.0621,0.22824 -0.0681,0.25117 z m -0.52211,2.89984 c 0.012,0.0642 0.0204,0.13194 0.0268,0.20249 l 0.004,0.0533 -2.6e-4,0.0568 c 0,0.0353 -2.7e-4,0.0709 -7.9e-4,0.10724 -0.002,0.1457 -0.0265,0.31539 -0.0681,0.47272 -0.0226,0.0797 -0.0511,0.15946 -0.0801,0.23989 -0.037,0.0773 -0.066,0.16016 -0.11359,0.23354 -0.0441,0.0759 -0.0893,0.1517 -0.14429,0.22155 -0.0501,0.0734 -0.11042,0.13864 -0.17004,0.20496 -0.06,0.066 -0.13053,0.121 -0.19579,0.18062 -0.0727,0.0508 -0.1397,0.10936 -0.21625,0.15205 -0.0744,0.0459 -0.14923,0.0903 -0.22896,0.12241 -0.0769,0.0381 -0.15698,0.066 -0.23601,0.0914 -0.15733,0.0533 -0.31679,0.0776 -0.46707,0.091 -0.15205,0.008 -0.29069,0.008 -0.42263,-0.012 -0.25965,-0.0342 -0.46249,-0.11536 -0.59584,-0.18204 -0.0674,-0.0324 -0.11642,-0.0646 -0.15064,-0.085 -0.0332,-0.0215 -0.0508,-0.0332 -0.0508,-0.0332 0,0 0.0787,0.0325 0.21943,0.072 0.1404,0.0392 0.34466,0.0815 0.58879,0.085 0.11959,0.004 0.25505,-0.0127 0.39017,-0.0303 0.13617,-0.0243 0.27693,-0.06 0.41628,-0.11359 0.0699,-0.0265 0.14005,-0.0547 0.20672,-0.0928 0.0695,-0.0328 0.13441,-0.0751 0.20073,-0.11606 0.0674,-0.0392 0.12595,-0.0931 0.1898,-0.13864 0.0571,-0.0543 0.11889,-0.10442 0.17145,-0.16369 0.0536,-0.0579 0.10901,-0.11465 0.15416,-0.17956 0.0504,-0.061 0.0914,-0.12806 0.13194,-0.19474 0.043,-0.0653 0.0713,-0.13758 0.10901,-0.20426 0.0293,-0.0705 0.0589,-0.14075 0.0829,-0.21131 0.0434,-0.14605 0.0776,-0.27693 0.0931,-0.41945 0.003,-0.036 0.007,-0.0716 0.01,-0.10654 l 0.004,-0.0476 0.002,-0.0494 c 0.002,-0.0653 0.002,-0.12877 -0.002,-0.18945 -0.0145,-0.24412 -0.066,-0.44591 -0.11148,-0.58455 -0.0452,-0.13899 -0.0815,-0.21625 -0.0815,-0.21625 0,0 0.0124,0.0173 0.0353,0.0497 0.0219,0.0328 0.0561,0.0808 0.0914,0.14676 0.0723,0.12982 0.16227,0.32914 0.20813,0.58702 z m -3.99379,-0.37148 c -0.15417,-0.19649 0.0896,-0.64487 0.54433,-1.00189 0.45473,-0.35701 0.94827,-0.48753 1.10243,-0.29104 0.0797,0.10125 0.0526,0.26988 -0.0536,0.45791 0.10019,0.003 0.18697,0.0356 0.24095,0.10442 0.12841,0.16334 0.0279,0.45649 -0.22437,0.6544 -0.25259,0.19826 -0.56092,0.22613 -0.68933,0.0628 -0.0265,-0.0339 -0.0413,-0.0744 -0.0487,-0.11748 -0.3803,0.23107 -0.7433,0.29422 -0.87171,0.13088 z m -5.83354,-11.95352 c -0.14605,-0.87912 -0.31397,-1.73637 -0.49741,-2.57422 0.59619,0.28399 1.17545,0.57538 1.73249,0.87454 1.62066,0.87559 3.07622,1.8041 4.32364,2.76154 -1.07703,1.33632 -2.44933,2.72486 -4.06541,4.09963 -0.28257,0.23954 -0.57538,0.47766 -0.87277,0.71544 -0.0254,-0.54716 -0.06,-1.08973 -0.10301,-1.62702 -0.0282,-0.36583 -0.0663,-0.73413 -0.0988,-1.09713 -0.0342,-0.36372 -0.079,-0.7038 -0.11748,-1.05375 -0.0875,-0.72249 -0.1845,-1.41041 -0.30127,-2.09903 z m -0.55104,11.21445 c -0.01,0.2286 -0.0173,0.55669 -0.0512,0.94792 -0.0314,0.39158 -0.0716,0.84878 -0.13758,1.33597 -0.0674,0.48683 -0.15029,1.00435 -0.24377,1.52047 -0.10478,0.514 -0.21978,1.02552 -0.33761,1.50248 -0.11995,0.4766 -0.25153,0.91616 -0.3676,1.29152 -0.11394,0.37606 -0.22789,0.68368 -0.30409,0.89958 -0.0801,0.21449 -0.12594,0.33726 -0.12594,0.33726 0,0 0.0324,-0.127 0.0892,-0.3489 0.0603,-0.22049 0.13688,-0.53834 0.23283,-0.91793 0.0998,-0.37888 0.19544,-0.82585 0.30763,-1.30175 0.10865,-0.4766 0.21449,-0.98742 0.30974,-1.50001 0.1016,-0.51117 0.19261,-1.02482 0.26846,-1.50777 0.072,-0.48366 0.14922,-0.93416 0.19685,-1.32292 0.0512,-0.38805 0.0984,-0.7119 0.12418,-0.93909 0.0296,-0.22719 0.0466,-0.35701 0.0466,-0.35701 0,0 -0.003,0.13088 -0.008,0.36018 z m -2.34385,7.7724 c -0.15558,0.42686 -0.34114,0.88406 -0.56974,1.35502 -0.22683,0.47131 -0.4893,0.96132 -0.81386,1.43898 -0.3242,0.47661 -0.69532,0.95603 -1.15746,1.37125 -0.45685,0.41734 -1.01071,0.77152 -1.633362,0.9712 -0.149931,0.0568 -0.326318,0.0801 -0.491066,0.11536 -0.08749,0.0205 -0.152752,0.0166 -0.230363,0.0261 l -0.111831,0.01 -0.05574,0.005 -0.02787,0.002 -0.0314,0.002 h -0.01482 c -0.317146,2.6e-4 -0.634646,-0.0134 -0.942975,-0.0706 -0.619125,-0.1016 -1.198385,-0.3309 -1.707796,-0.62018 -0.513291,-0.28681 -0.957087,-0.63853 -1.343731,-0.99872 -0.386998,-0.36159 -0.712258,-0.73977 -0.991306,-1.10137 -0.5588,-0.7246 -0.925687,-1.3903 -1.161344,-1.86231 -0.234243,-0.47378 -0.33514,-0.75777 -0.33514,-0.75777 0,0 0.146757,0.26317 0.437798,0.6985 0.29069,0.43462 0.726017,1.04387 1.321152,1.70145 0.298805,0.32773 0.640647,0.66357 1.024115,0.98778 0.386292,0.32102 0.822325,0.61912 1.298223,0.86924 0.475544,0.25294 1.004004,0.4258 1.55081,0.51294 0.273402,0.048 0.553157,0.0557 0.832909,0.0529 l 0.205316,-0.019 c 0.07056,-0.01 0.156986,-0.009 0.215194,-0.0272 0.126648,-0.0332 0.250473,-0.0451 0.381352,-0.0974 0.522465,-0.16228 1.009295,-0.45791 1.426985,-0.8315 0.41698,-0.3743 0.78987,-0.79763 1.10984,-1.24178 0.64276,-0.88829 1.12042,-1.81575 1.49824,-2.62325 0.37113,-0.81175 0.64559,-1.50813 0.82656,-2.00025 0.18274,-0.49178 0.27517,-0.77823 0.27517,-0.77823 0,0 -0.0434,0.29809 -0.16087,0.81244 -0.11782,0.51365 -0.31079,1.24425 -0.623,2.09762 z m -10.92694,2.86138 c -0.141817,-0.17886 -0.348898,-0.43215 -0.574675,-0.75282 -0.2286,-0.31856 -0.48895,-0.69568 -0.746477,-1.11337 -0.255413,-0.4191 -0.514705,-0.87348 -0.761648,-1.33562 -0.235302,-0.46743 -0.457907,-0.94156 -0.653344,-1.39135 -0.192616,-0.45121 -0.351721,-0.88124 -0.480483,-1.25131 -0.13194,-0.36935 -0.220488,-0.68439 -0.285046,-0.90346 -0.06033,-0.22049 -0.0949,-0.34608 -0.0949,-0.34608 0,0 0.04798,0.12136 0.131585,0.33373 0.07973,0.21379 0.204611,0.51506 0.352777,0.87595 0.143934,0.36301 0.335847,0.77611 0.534107,1.22096 0.202141,0.44345 0.430741,0.91017 0.672393,1.36984 0.237067,0.46214 0.486834,0.91793 0.733073,1.33844 0.250119,0.41769 0.476957,0.8128 0.691092,1.13947 0.209902,0.32879 0.384175,0.60466 0.51294,0.79269 0.125587,0.19086 0.197202,0.29986 0.197202,0.29986 0,0 -0.08326,-0.10054 -0.2286,-0.27693 z m 10.27536,-8.85789 c -1.10667,-0.15311 -2.25214,-0.36125 -3.424417,-0.6223 0.08326,-0.0363 0.167217,-0.073 0.250473,-0.10901 0.3302,-0.14464 0.643114,-0.29316 0.963434,-0.43674 0.65017,-0.30304 1.27494,-0.60466 1.89124,-0.92251 0.59867,-0.30727 1.18357,-0.6223 1.75472,-0.94368 -0.0977,1.00012 -0.2286,2.00413 -0.40217,3.00496 -0.009,0.0508 -0.019,0.1016 -0.0279,0.1524 -0.33196,-0.0363 -0.66639,-0.0762 -1.00541,-0.12312 z m -12.020904,1.26047 c -0.0042,-0.0116 -0.0092,-0.0233 -0.01376,-0.0349 -0.363715,-0.95956 -0.688975,-1.9297 -0.979313,-2.90231 0.372888,0.14182 0.745421,0.27799 1.1176,0.40711 0.344313,0.12171 0.693208,0.2346 1.036463,0.35066 0.343604,0.11501 0.67451,0.21237 1.00965,0.31821 0.623358,0.18873 1.227667,0.3623 1.834091,0.52246 -0.224014,0.0882 -0.446971,0.17745 -0.673806,0.26247 -1.081617,0.39934 -2.193573,0.762 -3.330927,1.07632 z m 7.454194,8.70021 -0.223309,0.008 -0.148518,0.006 c -0.01058,0 -0.02858,0.002 -0.03316,2.6e-4 l -0.01588,-0.004 -0.0321,-0.006 c -0.04233,-0.008 -0.08467,-0.012 -0.127706,-0.0134 -0.01199,-0.001 -0.01905,10e-4 -0.03493,-0.002 l -0.04692,-0.0102 -0.09384,-0.0194 c -0.06314,-0.0148 -0.125941,-0.0177 -0.189441,-0.0392 l -0.191559,-0.0603 -0.09666,-0.0282 -0.09666,-0.0427 c -0.06421,-0.0279 -0.129471,-0.0547 -0.194734,-0.0808 -0.522816,-0.23283 -1.044929,-0.61948 -1.533173,-1.07385 -0.489301,-0.4565 -0.94756,-0.99096 -1.370541,-1.56352 -0.422275,-0.57467 -0.817034,-1.18216 -1.177219,-1.81751 -0.359481,-0.6357 -0.700616,-1.28587 -1.003654,-1.95686 -0.158044,-0.33125 -0.299509,-0.67204 -0.447321,-1.00823 -0.01304,-0.0314 -0.0254,-0.0632 -0.03845,-0.0945 1.135591,-0.2667 2.2479,-0.58173 3.332691,-0.92851 0.798338,-0.25294 1.581505,-0.52599 2.350913,-0.81315 2.023885,0.4445 3.980741,0.74471 5.831421,0.90769 0.30338,0.0257 0.60395,0.048 0.90134,0.0667 -0.0536,0.2473 -0.10759,0.49459 -0.17251,0.73872 -0.16827,0.71543 -0.37641,1.41816 -0.60642,2.10961 l -0.18027,0.51505 -0.1965,0.50553 c -0.0621,0.17075 -0.13617,0.33302 -0.20708,0.49777 -0.0709,0.16475 -0.14076,0.33055 -0.22084,0.48789 -0.30268,0.64276 -0.64981,1.25413 -1.0421,1.79423 -0.39017,0.53905 -0.82621,1.01847 -1.292581,1.34797 l -0.175331,0.11676 -0.08678,0.0596 -0.08925,0.0459 -0.17639,0.0952 c -0.05786,0.0335 -0.118885,0.0487 -0.177448,0.0751 -0.05962,0.0212 -0.116769,0.0568 -0.177094,0.0695 -0.05997,0.0152 -0.11924,0.0318 -0.178504,0.0497 -0.05856,0.0226 -0.119239,0.0286 -0.179564,0.0367 l -0.08996,0.0148 -0.04516,0.008 -0.02223,0.004 c 0.01024,-2.7e-4 0.0039,2.6e-4 -0.0046,0.001 z m -10.033,-19.11703 -0.03457,-0.24306 -0.03069,-0.25894 c -0.02045,-0.17251 -0.04092,-0.34431 -0.06103,-0.51541 -0.04445,-0.34713 -0.07091,-0.67098 -0.104423,-1.00154 -0.131233,-1.38853 -0.199318,-2.74602 -0.212018,-4.05941 0.863951,-0.53234 1.737076,-1.02588 2.608791,-1.48731 0.311502,-0.16581 0.625827,-0.32244 0.935567,-0.48225 0.310795,-0.15875 0.625475,-0.30551 0.934508,-0.45755 l 0.225777,-0.10866 0.237067,-0.10901 c 0.158043,-0.072 0.315383,-0.14358 0.472368,-0.21519 0.315738,-0.14746 0.621948,-0.27199 0.928513,-0.40464 0.488244,-0.20708 0.973667,-0.40146 1.457325,-0.58878 1.76036,0.39581 3.458631,0.87806 5.077175,1.4231 1.06115,0.35807 2.08668,0.74436 3.0741,1.15217 0.21414,1.22132 0.38665,2.49132 0.51047,3.80083 0.0289,0.33197 0.0649,0.66534 0.085,1.0026 0.0124,0.16827 0.0251,0.33725 0.0374,0.50659 l 0.0187,0.25435 0.0134,0.24871 c 0.0166,0.34642 0.0413,0.7052 0.0519,1.04704 0.009,0.3422 0.0233,0.68263 0.0286,1.03047 0.0187,1.12253 -0.001,2.26342 -0.0593,3.41488 -0.85337,0.58667 -1.74836,1.16241 -2.68534,1.7205 -0.57327,0.34361 -1.17158,0.68051 -1.768475,1.00612 -0.307269,0.16263 -0.619829,0.33479 -0.929217,0.48966 -0.310091,0.15416 -0.61877,0.31397 -0.935564,0.46672 -0.267054,0.12947 -0.537281,0.25612 -0.808921,0.38171 -0.601133,-0.16298 -1.207558,-0.33902 -1.818568,-0.52987 -0.637469,-0.19544 -1.288344,-0.41416 -1.925109,-0.63818 -0.326318,-0.11924 -0.664985,-0.23565 -0.986014,-0.35948 -0.321027,-0.12523 -0.643467,-0.24518 -0.967669,-0.37606 -0.808919,-0.32667 -1.622073,-0.67239 -2.432756,-1.04457 -0.242711,-1.0093 -0.449438,-2.01613 -0.621594,-3.01414 -0.116065,-0.68933 -0.224015,-1.37301 -0.315383,-2.0514 z m -0.581377,11.12555 c -0.750713,0.13088 -1.510948,0.22013 -2.275417,0.28081 -0.391231,0.0307 -0.783521,0.0473 -1.176163,0.0519 0.0021,-0.0402 0.006,-0.0801 0.006,-0.121 0,-1.27953 -1.037166,-2.31705 -2.317043,-2.31705 -1.078442,0 -1.982258,0.73801 -2.240492,1.73602 -0.150989,-0.0639 -0.299156,-0.13299 -0.449791,-0.19861 -0.16228,-0.0921 -0.329848,-0.1778 -0.48754,-0.27728 l -0.229658,-0.15805 -0.115359,-0.0783 -0.105833,-0.0892 -0.211667,-0.1785 c -0.07126,-0.0593 -0.128765,-0.13124 -0.193675,-0.1958 -0.06103,-0.0681 -0.132643,-0.12805 -0.18556,-0.20284 l -0.165455,-0.21837 c -0.05927,-0.0702 -0.103716,-0.14993 -0.149225,-0.22895 l -0.06914,-0.11783 -0.03492,-0.0589 -0.01765,-0.0293 c -0.0021,-0.002 -0.01939,-0.0367 -0.0095,-0.0127 l -0.118885,-0.27199 -0.05927,-0.13617 c -0.02151,-0.0459 -0.02681,-0.0854 -0.04127,-0.12806 l -0.07514,-0.25188 c -0.02787,-0.0822 -0.03493,-0.17851 -0.05362,-0.26705 -0.01376,-0.091 -0.03775,-0.17992 -0.04339,-0.272 l -0.01905,-0.27657 -0.0095,-0.13829 0.0046,-0.1397 0.0088,-0.2787 c 0.04586,-0.74577 0.25894,-1.4859 0.546806,-2.19075 0.290335,-0.70626 0.667454,-1.37971 1.088319,-2.02212 0.202141,-0.30797 0.41416,-0.60925 0.635,-0.90417 0.531635,0.4505 1.076677,0.87771 1.635831,1.27282 0.322792,0.23883 0.656519,0.45615 0.984954,0.68086 0.332317,0.21732 0.664988,0.4311 1.000125,0.63818 0.337963,0.20108 0.670631,0.41028 1.011767,0.59902 0.169687,0.0963 0.339021,0.19261 0.508,0.28857 0.171098,0.0921 0.341489,0.18415 0.511881,0.27587 0.340783,0.1838 0.685448,0.35525 1.029052,0.52529 0.34149,0.17462 0.689681,0.3309 1.032581,0.49389 0.03069,0.0141 0.06138,0.0275 0.09207,0.0416 0.03528,0.18204 0.07126,0.36442 0.108657,0.54681 0.295979,1.40582 0.658283,2.82892 1.118658,4.24744 -0.155929,0.0293 -0.311856,0.0575 -0.468842,0.0811 z m -3.585633,0.26282 c 0,0.0353 -2.65e-4,0.0709 -7.94e-4,0.10689 -0.0024,0.14605 -0.02646,0.31574 -0.06808,0.47308 -0.02257,0.0797 -0.05115,0.15945 -0.08008,0.23989 -0.03704,0.0769 -0.06597,0.1598 -0.113593,0.23354 -0.0441,0.0758 -0.08926,0.15169 -0.144288,0.22119 -0.05009,0.0737 -0.110419,0.13899 -0.170037,0.20531 -0.05997,0.0656 -0.13053,0.12101 -0.195792,0.18063 -0.07267,0.0508 -0.1397,0.109 -0.216255,0.15204 -0.07444,0.0459 -0.149225,0.0903 -0.228951,0.12242 -0.07691,0.0381 -0.156634,0.0656 -0.236009,0.091 -0.15734,0.0536 -0.316793,0.078 -0.467077,0.091 -0.152048,0.008 -0.290689,0.008 -0.422629,-0.0116 -0.259644,-0.0346 -0.462492,-0.11536 -0.595842,-0.18203 -0.06738,-0.0325 -0.116417,-0.0646 -0.150635,-0.085 -0.03316,-0.0215 -0.0508,-0.0332 -0.0508,-0.0332 0,0 0.07867,0.0325 0.219427,0.0716 0.140406,0.0395 0.344665,0.0818 0.588788,0.0854 0.119591,0.004 0.255058,-0.0127 0.39017,-0.0303 0.136173,-0.0243 0.276932,-0.06 0.41628,-0.11359 0.06985,-0.0265 0.140052,-0.055 0.207078,-0.0928 0.06915,-0.0328 0.134057,-0.0751 0.20038,-0.11642 0.06738,-0.0388 0.125942,-0.0928 0.189794,-0.13864 0.05715,-0.0543 0.118885,-0.10407 0.17145,-0.16334 0.05362,-0.0579 0.109008,-0.115 0.154164,-0.17956 0.05045,-0.061 0.09137,-0.12806 0.131937,-0.19473 0.04304,-0.0653 0.07126,-0.13759 0.109009,-0.20462 0.02928,-0.0705 0.05891,-0.1404 0.0829,-0.21131 0.04339,-0.14605 0.07761,-0.27658 0.09313,-0.4191 0.0032,-0.036 0.0067,-0.0716 0.0099,-0.10654 l 0.0042,-0.0476 0.0021,-0.0494 c 0.0021,-0.0653 0.0019,-0.12877 -0.0021,-0.1898 -0.01447,-0.24377 -0.06597,-0.44591 -0.111477,-0.5842 -0.04516,-0.13899 -0.08149,-0.21625 -0.08149,-0.21625 0,0 0.01236,0.0173 0.03528,0.0494 0.02188,0.0332 0.05609,0.0811 0.09137,0.14675 0.07232,0.13018 0.162279,0.3295 0.20814,0.58738 0.01236,0.0642 0.02045,0.13194 0.02681,0.20249 l 0.0039,0.0533 z m -4.024138,-0.68404 c -0.154162,-0.19649 0.08961,-0.64523 0.544338,-1.00224 0.454728,-0.35701 0.948266,-0.48718 1.102428,-0.29069 0.07973,0.10125 0.05257,0.26988 -0.05398,0.45791 0.100542,0.002 0.187325,0.0353 0.2413,0.10407 0.128413,0.16369 0.02787,0.45649 -0.224366,0.65475 -0.252235,0.19791 -0.560917,0.22614 -0.689327,0.0628 -0.02646,-0.0342 -0.04127,-0.0744 -0.04868,-0.11783 -0.380294,0.23142 -0.743302,0.29457 -0.871715,0.13123 z M 77.08516,136.01982 c -0.31891,-0.38841 -0.648052,-0.82479 -0.957085,-1.31586 -0.30974,-0.4893 -0.608542,-1.02941 -0.845256,-1.62525 -0.234244,-0.59513 -0.420511,-1.24601 -0.471663,-1.93287 -0.05997,-0.68333 0.02999,-1.4097 0.277988,-2.06974 0.251883,-0.6724 0.697796,-1.25166 1.207912,-1.71027 0.509411,-0.46426 1.090084,-0.80751 1.665817,-1.08162 0.576792,-0.27622 1.159579,-0.47343 1.71591,-0.63147 0.556684,-0.1591 1.091494,-0.26811 1.58609,-0.35101 0.990245,-0.16687 1.82386,-0.21485 2.405592,-0.23248 0.582435,-0.0162 0.9144,0.004 0.9144,0.004 0,0 -0.330907,0.0303 -0.904172,0.11394 -0.572558,0.0843 -1.388885,0.21767 -2.347028,0.45015 -0.954265,0.23777 -2.06093,0.56726 -3.137255,1.11866 -0.537985,0.27269 -1.055862,0.61912 -1.509535,1.03646 -0.452967,0.41663 -0.831144,0.92251 -1.038577,1.49789 -0.22084,0.57891 -0.307271,1.19804 -0.259998,1.81469 0.04551,0.61489 0.180975,1.22096 0.387702,1.78611 0.414867,1.13278 1.021292,2.11491 1.582915,2.9203 0.568325,0.80398 1.100666,1.43722 1.482725,1.87149 0.383468,0.43391 0.617714,0.66957 0.617714,0.66957 0,0 -0.267406,-0.19756 -0.702381,-0.58561 -0.432152,-0.38982 -1.034698,-0.96944 -1.671815,-1.74696 z m 8.724548,-10.37625 c 0.236715,0.005 0.434269,0.0243 0.572207,0.0324 0.137583,0.0127 0.216603,0.0198 0.216603,0.0198 0,0 -0.07902,0.007 -0.216603,0.019 -0.137938,0.01 -0.334788,0.0243 -0.570442,0.0413 -0.235656,0.0152 -0.510471,0.0328 -0.80504,0.0519 -0.294216,0.0159 -0.607835,0.0363 -0.921456,0.0603 -0.313971,0.0162 -0.627592,0.036 -0.921454,0.0579 -0.294571,0.0187 -0.569383,0.0363 -0.80504,0.0515 -0.236008,0.013 -0.43321,0.0243 -0.570793,0.0321 -0.13829,0.005 -0.217313,0.009 -0.217313,0.009 0,0 0.07691,-0.0173 0.212373,-0.0473 0.135467,-0.0258 0.32879,-0.0699 0.563033,-0.10513 0.234244,-0.0353 0.507294,-0.0811 0.802217,-0.11218 0.294568,-0.0307 0.609248,-0.0596 0.924277,-0.0847 0.315738,-0.0155 0.631473,-0.0272 0.927806,-0.0342 0.295982,-0.007 0.572559,0.004 0.809625,0.008 z m -9.414581,3.54612 c -0.08714,0.18521 -0.161219,0.37712 -0.216958,0.56162 -0.0515,0.18521 -0.106892,0.35842 -0.131234,0.51259 -0.02928,0.1524 -0.05433,0.28187 -0.0635,0.37324 -0.0127,0.0917 -0.02011,0.14428 -0.02011,0.14428 0,0 -0.0067,-0.0529 -0.01834,-0.14499 -0.0071,-0.0924 -0.02117,-0.22648 -0.0092,-0.38629 0.0085,-0.16016 0.02893,-0.34784 0.0755,-0.54434 0.04974,-0.19544 0.118886,-0.40005 0.202494,-0.59901 0.09525,-0.19333 0.204258,-0.37959 0.319265,-0.54575 0.11712,-0.16404 0.245885,-0.30233 0.361243,-0.41381 0.11289,-0.11395 0.223309,-0.1912 0.297744,-0.24659 0.07726,-0.0515 0.121356,-0.0808 0.121356,-0.0808 0,0 -0.03457,0.0399 -0.09525,0.10972 -0.06315,0.0667 -0.144285,0.17074 -0.240241,0.2928 -0.10019,0.11924 -0.194382,0.27517 -0.300919,0.43498 -0.102658,0.16298 -0.198967,0.34501 -0.281871,0.53234 z m 10.0203,-1.45944 c -0.155575,1.10772 -0.269521,2.26413 -0.3429,3.4604 -0.0042,0.003 -0.0085,0.006 -0.0127,0.009 -1.216025,0.8823 -2.408412,1.83973 -3.554235,2.87866 -0.286809,0.25894 -0.569736,0.52459 -0.851607,0.79234 -0.276225,0.27446 -0.559152,0.54257 -0.82691,0.82903 -0.294217,0.30233 -0.581377,0.61419 -0.862542,0.93239 -0.435327,-0.40216 -0.848431,-0.82444 -1.23825,-1.26082 -0.483658,-0.54505 -0.925689,-1.12008 -1.281641,-1.72085 -0.08961,-0.14958 -0.166511,-0.30269 -0.251884,-0.45333 -0.07973,-0.15169 -0.141816,-0.30726 -0.21731,-0.45896 -0.06491,-0.15346 -0.117829,-0.30797 -0.179565,-0.46143 -0.04127,-0.15381 -0.09313,-0.30762 -0.12841,-0.46073 -0.135821,-0.60713 -0.128413,-1.19063 0.03034,-1.72685 l 0.0081,-0.0208 0.02681,-0.0695 0.05362,-0.13828 0.05362,-0.13865 c 0.0092,-0.0272 0.01693,-0.0385 0.02469,-0.0497 l 0.02257,-0.037 c 0.02928,-0.0494 0.0568,-0.0995 0.0822,-0.15134 0.0092,-0.0243 0.03104,-0.0543 0.05292,-0.0847 l 0.06244,-0.09 c 0.04339,-0.0593 0.07691,-0.12382 0.126648,-0.18027 l 0.147461,-0.17109 0.07267,-0.0868 0.08502,-0.0797 0.168275,-0.16192 c 0.117475,-0.10442 0.249415,-0.20003 0.372886,-0.30198 0.139348,-0.09 0.27305,-0.18485 0.414866,-0.2734 0.149225,-0.0822 0.291042,-0.1718 0.4445,-0.24977 0.15734,-0.0737 0.309388,-0.15416 0.470255,-0.22436 0.640643,-0.28399 1.336675,-0.49672 2.049285,-0.6604 0.714023,-0.16122 1.443919,-0.28646 2.184048,-0.36054 0.995537,-0.10689 2.000954,-0.15275 3.004254,-0.15029 -0.07585,0.43251 -0.14605,0.87313 -0.20955,1.32186 z m -3.354917,12.32111 c 0,0 -0.0896,-0.0434 -0.246592,-0.11923 -0.154868,-0.0797 -0.379235,-0.18874 -0.63641,-0.34149 -0.258233,-0.15029 -0.558093,-0.3295 -0.867127,-0.54081 -0.307623,-0.21308 -0.629356,-0.44909 -0.944739,-0.69427 -0.307975,-0.254 -0.608542,-0.51646 -0.883709,-0.77046 -0.27305,-0.25542 -0.513998,-0.50871 -0.717198,-0.72779 -0.204962,-0.21766 -0.360537,-0.41275 -0.472368,-0.54645 -0.10795,-0.13652 -0.17004,-0.21449 -0.17004,-0.21449 0,0 0.07232,0.0684 0.198615,0.18839 0.123118,0.12241 0.306916,0.28998 0.523168,0.49353 0.213783,0.20638 0.478015,0.43145 0.753888,0.67875 0.278342,0.24518 0.582083,0.49847 0.892527,0.74295 0.306565,0.24941 0.619831,0.49036 0.920043,0.70837 0.30198,0.21449 0.578557,0.42369 0.826913,0.58738 0.245886,0.16651 0.449437,0.30939 0.595842,0.40287 0.144637,0.097 0.227187,0.15275 0.227187,0.15275 z m -2.538942,-2.92452 c 0.278342,-0.30128 0.563034,-0.59584 0.858309,-0.87842 0.268465,-0.27058 0.553508,-0.52352 0.83044,-0.78246 0.282926,-0.25294 0.566914,-0.50341 0.854781,-0.74754 0.95532,-0.79657 1.942042,-1.53529 2.943929,-2.22426 -0.03351,0.98813 -0.03845,2.00131 -0.01164,3.03777 0.0441,1.80798 0.188032,3.68723 0.452967,5.6067 -0.237067,-0.12877 -0.473779,-0.25859 -0.707319,-0.39512 -0.159456,-0.0907 -0.319616,-0.18132 -0.479777,-0.27234 -0.157691,-0.0942 -0.316089,-0.18838 -0.474488,-0.28293 -0.319616,-0.18556 -0.627591,-0.38876 -0.942268,-0.5849 -1.160285,-0.74542 -2.278592,-1.5748 -3.324932,-2.4765 z m 7.345892,-9.24031 c 0.03669,-0.49142 0.08291,-0.97296 0.13688,-1.44498 0.02611,10e-4 0.05221,0.002 0.07796,0.003 1.483783,0.0772 2.95275,0.23283 4.389966,0.45649 0.154165,0.0243 0.306565,0.0522 0.459672,0.0776 -0.13335,0.0681 -0.265642,0.13688 -0.394055,0.20708 -0.1524,0.0811 -0.3048,0.16263 -0.458258,0.24448 l -0.230362,0.12171 -0.23848,0.13193 c -0.308327,0.17357 -0.621945,0.34185 -0.930979,0.52247 -0.308681,0.18168 -0.621241,0.35983 -0.930629,0.54786 -0.661459,0.39794 -1.320094,0.81845 -1.975554,1.25624 0.01447,-0.72425 0.0448,-1.43474 0.09384,-2.12407 z m 1.07809,-6.25193 c 0.263877,-0.90558 0.57785,-1.73073 0.918985,-2.46592 0.345017,-0.73307 0.722842,-1.37301 1.11619,-1.90711 0.394758,-0.5327 0.79869,-0.96626 1.19521,-1.28164 0.09596,-0.084 0.199673,-0.14641 0.292806,-0.21696 0.04763,-0.0339 0.09419,-0.0674 0.1397,-0.10019 0.04798,-0.0279 0.09525,-0.055 0.141111,-0.0815 0.09243,-0.0529 0.180623,-0.10372 0.264583,-0.1517 0.08855,-0.0377 0.172508,-0.0734 0.251883,-0.10724 0.156988,-0.0737 0.305507,-0.10725 0.4318,-0.14076 0.06386,-0.0152 0.121357,-0.0346 0.175332,-0.043 0.05433,-0.007 0.103716,-0.0138 0.14746,-0.0194 0.14605,-0.0201 0.23213,-0.0317 0.256823,-0.0353 0.02893,-2.7e-4 0.122767,-10e-4 0.280458,-0.002 0.04798,-2.6e-4 0.1016,-0.001 0.161219,-0.001 0.05786,0.001 0.110773,0.0124 0.173567,0.0187 0.123825,0.0169 0.263525,0.0222 0.432506,0.0691 0.0829,0.0191 0.171098,0.0392 0.263525,0.0603 0.09067,0.0314 0.18556,0.0646 0.285398,0.0991 0.04939,0.0173 0.100187,0.0349 0.1524,0.0529 0.04586,0.0215 0.09313,0.0434 0.14111,0.0656 -0.133702,0.29316 -0.210256,0.61736 -0.210256,0.96061 0,1.27953 1.037521,2.31705 2.317046,2.31705 0.424389,0 0.82056,-0.11607 1.162754,-0.31503 0.442735,0.629 0.86748,1.34479 1.27282,2.1336 0.44591,0.86924 0.86537,1.82844 1.24954,2.8642 -0.41381,0.11183 -0.83044,0.22966 -1.25236,0.35948 -1.683102,0.5207 -3.42265,1.17828 -5.191829,1.97097 -0.890413,-0.23354 -1.79705,-0.44697 -2.72274,-0.63077 -1.4605,-0.29069 -2.963333,-0.51752 -4.501091,-0.64488 0.178152,-1.00612 0.397581,-1.95227 0.65405,-2.8268 z m 8.026048,-6.86294 c 0.454729,-0.35701 0.948266,-0.48718 1.102429,-0.29104 0.07973,0.10125 0.05256,0.26988 -0.05362,0.45826 0.100187,0.002 0.186971,0.0353 0.240946,0.10407 0.128412,0.16333 0.02787,0.45649 -0.224367,0.6544 -0.252235,0.19826 -0.560917,0.22613 -0.688975,0.0628 -0.02681,-0.0339 -0.04127,-0.0744 -0.04904,-0.11748 -0.380294,0.23107 -0.743302,0.29422 -0.871715,0.13088 -0.154162,-0.1965 0.08961,-0.64488 0.544338,-1.00189 z m 1.95368,3.5045 c 0.06985,-0.0268 0.140055,-0.055 0.207082,-0.0928 0.06914,-0.0328 0.134056,-0.0755 0.200377,-0.11642 0.06773,-0.0392 0.125941,-0.0928 0.189796,-0.13864 0.05715,-0.0543 0.119237,-0.10442 0.17145,-0.16369 0.05397,-0.0579 0.109008,-0.11465 0.154162,-0.17956 0.05045,-0.0607 0.09137,-0.12771 0.13194,-0.19474 0.04304,-0.0649 0.07161,-0.13758 0.109365,-0.20426 0.0293,-0.0705 0.0586,-0.14075 0.0825,-0.21131 0.0434,-0.14605 0.0776,-0.27693 0.0931,-0.41945 0.003,-0.036 0.007,-0.0713 0.01,-0.10654 l 0.005,-0.0473 0.002,-0.0494 c 0.002,-0.0656 0.002,-0.12912 -0.002,-0.1898 -0.0141,-0.24412 -0.066,-0.44591 -0.11148,-0.58455 -0.0451,-0.13899 -0.0815,-0.21625 -0.0815,-0.21625 0,0 0.0123,0.0173 0.0353,0.0497 0.0222,0.0328 0.0561,0.0811 0.0914,0.14675 0.0723,0.13018 0.16263,0.32915 0.20814,0.58703 0.0123,0.0642 0.0204,0.13194 0.0268,0.20249 l 0.004,0.0533 -2.7e-4,0.0571 c 0,0.0349 -2.6e-4,0.0706 -7.9e-4,0.10689 -0.002,0.1457 -0.0261,0.31574 -0.0681,0.47272 -0.0226,0.0797 -0.0511,0.15946 -0.0801,0.24025 -0.0367,0.0769 -0.066,0.1598 -0.11359,0.23353 -0.0441,0.0755 -0.0893,0.1517 -0.14429,0.2212 -0.04974,0.0734 -0.110419,0.13899 -0.17004,0.20496 -0.05997,0.066 -0.130527,0.12136 -0.195791,0.18062 -0.07267,0.0508 -0.1397,0.10936 -0.216252,0.1524 -0.07444,0.0459 -0.149225,0.0903 -0.228952,0.12242 -0.07691,0.0377 -0.156634,0.0656 -0.236009,0.091 -0.157339,0.0536 -0.316796,0.0776 -0.466725,0.091 -0.1524,0.008 -0.291041,0.008 -0.422981,-0.012 -0.259644,-0.0342 -0.462492,-0.11536 -0.595842,-0.18203 -0.06738,-0.0321 -0.116416,-0.0646 -0.150635,-0.0847 -0.03316,-0.0219 -0.0508,-0.0335 -0.0508,-0.0335 0,0 0.07867,0.0324 0.219427,0.072 0.140406,0.0395 0.344665,0.0818 0.588788,0.085 0.119592,0.004 0.25541,-0.0127 0.39017,-0.0303 0.136173,-0.0243 0.276932,-0.0596 0.416277,-0.11325 z m 4.004732,8.19467 c 0.17604,0.66252 0.33726,1.34867 0.48613,2.05105 -0.74083,-0.33161 -1.50177,-0.65264 -2.28706,-0.95814 -0.92639,-0.36054 -1.884185,-0.70309 -2.86808,-1.02271 1.016,-0.32455 2.01189,-0.60536 2.97709,-0.83714 0.47096,-0.11183 0.9331,-0.21025 1.38924,-0.30056 0.10477,0.3496 0.20602,0.70485 0.30268,1.0675 z m 4.48663,-1.63795 c 0.91369,-0.024 1.7593,0.0148 2.51778,0.10407 0.75776,0.0914 1.42698,0.23883 1.9886,0.42369 0.55986,0.18591 1.01847,0.4004 1.35749,0.62618 0.0896,0.0526 0.1584,0.11642 0.23495,0.16863 0.037,0.0268 0.0734,0.0529 0.10901,0.0787 0.0307,0.0289 0.061,0.0568 0.0907,0.0843 0.06,0.0536 0.11677,0.10478 0.1711,0.15346 0.0452,0.0536 0.0885,0.10372 0.13018,0.15028 0.0903,0.0889 0.14181,0.1831 0.19614,0.25718 0.0258,0.0381 0.0543,0.0702 0.0723,0.10407 0.0173,0.0339 0.0332,0.0646 0.0469,0.0921 0.0349,0.0663 0.0593,0.10972 0.0741,0.13547 0.0183,0.0444 0.0483,0.11642 0.0903,0.21766 0.0183,0.0445 0.0381,0.0942 0.0632,0.14852 l 0.009,0.0204 c 0.001,0.005 0.001,0.007 0.002,0.0113 l 0.005,0.0219 c 0.004,0.0148 0.007,0.0303 0.0106,0.0462 0.0138,0.067 0.0497,0.11853 0.0709,0.25611 0.0127,0.0607 0.0275,0.12489 0.0441,0.19262 0.007,0.072 0.0145,0.14746 0.0226,0.22684 0.005,0.0399 0.009,0.0804 0.0141,0.12206 -2.7e-4,0.0437 -8e-4,0.0882 -0.001,0.1337 -0.003,0.0921 0.008,0.1845 -0.003,0.28751 -0.018,0.40464 -0.11571,0.89959 -0.29598,1.45944 -0.18239,0.55986 -0.45826,1.18569 -0.83221,1.84962 -0.32032,0.56303 -0.70978,1.15429 -1.16099,1.76318 -1.24883,-1.0354 -2.69522,-2.05634 -4.31941,-3.02083 -0.83044,-0.49107 -1.70568,-0.96944 -2.62008,-1.43228 -0.30974,-1.22661 -0.65758,-2.40101 -1.03822,-3.51367 -0.10125,-0.2928 -0.20461,-0.58138 -0.3101,-0.86572 1.15535,-0.17462 2.24967,-0.27763 3.26002,-0.30268 z m 0.83432,-1.02235 c 0.48719,-0.0427 1.18921,-0.079 2.03235,-0.0148 0.42157,0.0318 0.87877,0.0857 1.35714,0.18768 0.47801,0.0995 0.98002,0.24094 1.47743,0.4579 0.49636,0.21414 0.99766,0.4953 1.43228,0.88724 0.22225,0.19438 0.41451,0.4064 0.6029,0.65758 0.15557,0.20778 0.3302,0.50341 0.44626,0.76799 0.23671,0.55034 0.34819,1.1423 0.37147,1.71662 0.0233,0.57573 -0.0494,1.1363 -0.16192,1.66193 -0.11359,0.52635 -0.28152,1.01777 -0.46743,1.46897 -0.18415,0.45262 -0.39617,0.86254 -0.61136,1.22767 -0.42934,0.73201 -0.8816,1.27917 -1.22944,1.62666 -0.17145,0.17639 -0.32208,0.29809 -0.42333,0.38064 -0.10477,0.079 -0.16051,0.12101 -0.16051,0.12101 0,0 0.048,-0.0501 0.13829,-0.14464 0.0875,-0.0963 0.2099,-0.24271 0.3556,-0.43498 0.29139,-0.38523 0.6611,-0.96908 1.01529,-1.71026 0.3496,-0.74154 0.68545,-1.64395 0.86536,-2.63772 0.091,-0.49601 0.12277,-1.01495 0.10196,-1.53282 -0.0275,-0.51682 -0.13512,-1.03399 -0.3429,-1.50354 -0.0536,-0.11642 -0.10548,-0.23566 -0.16828,-0.33832 -0.0519,-0.10371 -0.13476,-0.22048 -0.21308,-0.33478 -0.0649,-0.091 -0.15451,-0.19791 -0.23495,-0.2921 -0.0896,-0.0914 -0.17286,-0.18838 -0.27093,-0.27058 -0.18556,-0.17533 -0.3944,-0.3242 -0.60219,-0.4692 -0.21519,-0.13546 -0.43321,-0.26352 -0.66075,-0.3683 -0.45262,-0.21237 -0.91405,-0.38135 -1.3649,-0.50376 -0.45085,-0.12171 -0.88618,-0.21343 -1.29258,-0.28117 -0.81315,-0.13158 -1.50459,-0.18238 -1.98931,-0.20672 -0.48507,-0.024 -0.76447,-0.0205 -0.76447,-0.0205 0,0 0.27446,-0.0533 0.762,-0.0977 z m 7.89587,6.47348 c 0.0624,-0.26811 0.11536,-0.55669 0.15522,-0.84702 0.0448,-0.28963 0.0769,-0.58138 0.0938,-0.85619 0.0124,-0.27447 0.0328,-0.53199 0.0282,-0.75283 -2.7e-4,-0.22119 0.002,-0.40675 -0.005,-0.53622 -0.003,-0.13018 -0.005,-0.20462 -0.005,-0.20462 0,0 0.0159,0.073 0.0434,0.20038 0.0229,0.12806 0.0607,0.31186 0.0787,0.53517 0.0212,0.22295 0.0388,0.48471 0.0324,0.76552 -0.009,0.28081 -0.0321,0.57997 -0.0695,0.87736 -0.0497,0.29598 -0.11289,0.58914 -0.18486,0.86078 -0.0751,0.27058 -0.16651,0.51647 -0.25047,0.72425 -0.0818,0.20849 -0.17039,0.37395 -0.22895,0.49001 -0.0628,0.1143 -0.0988,0.17956 -0.0988,0.17956 0,0 0.0229,-0.0709 0.0631,-0.19473 0.0437,-0.12206 0.0953,-0.30021 0.15875,-0.51188 0.0677,-0.21061 0.12241,-0.46284 0.18873,-0.72954 z m 0.91123,13.57453 c 0.0342,-0.0702 0.072,-0.13758 0.0945,-0.19403 0.0204,-0.0557 0.0392,-0.10618 0.0557,-0.15134 0.0667,-0.17991 0.10089,-0.27269 0.10089,-0.27269 l 0.006,-0.018 c 0,0 0.0258,-0.10371 0.0759,-0.3048 0.0124,-0.0504 0.0261,-0.10689 0.0413,-0.16898 0.0138,-0.0624 0.0187,-0.13299 0.0296,-0.20814 0.0173,-0.15134 0.0487,-0.32596 0.0427,-0.52528 0.001,-0.0991 0.002,-0.20426 0.003,-0.31503 -0.0106,-0.10972 -0.0215,-0.22507 -0.0332,-0.34572 -0.006,-0.0603 -0.012,-0.12207 -0.018,-0.18521 -0.0113,-0.0621 -0.0229,-0.12524 -0.0349,-0.1898 -0.0268,-0.12841 -0.043,-0.26564 -0.0815,-0.40146 -0.13053,-0.55245 -0.36795,-1.15676 -0.69885,-1.79281 -0.33373,-0.635 -0.77294,-1.29576 -1.31057,-1.9618 -0.31609,-0.38912 -0.66675,-0.78035 -1.04775,-1.17087 1.2513,-1.46368 2.17699,-2.95346 2.72168,-4.37692 0.28328,-0.74436 0.46919,-1.46438 0.53728,-2.1336 0.0226,-0.16439 0.0222,-0.33231 0.0325,-0.48859 0.003,-0.0787 0.006,-0.15593 0.01,-0.23142 -0.003,-0.0776 -0.006,-0.15311 -0.009,-0.22719 -0.008,-0.14817 -0.0162,-0.28963 -0.024,-0.42404 -0.0212,-0.13617 -0.0413,-0.26529 -0.0603,-0.38735 -0.0286,-0.23142 -0.10619,-0.48966 -0.17075,-0.69427 -0.0166,-0.0519 -0.0328,-0.1016 -0.048,-0.14922 -0.008,-0.0236 -0.0155,-0.0469 -0.0233,-0.0695 l -0.0109,-0.0328 -0.009,-0.0208 c -0.0226,-0.055 -0.0455,-0.10372 -0.0653,-0.14746 -0.0794,-0.17427 -0.1203,-0.26458 -0.1203,-0.26458 l -0.0367,-0.078 c 0,0 -0.0695,-0.11536 -0.20426,-0.33937 -0.0342,-0.0554 -0.073,-0.11748 -0.11535,-0.18591 -0.0441,-0.0677 -0.1009,-0.13512 -0.15875,-0.21097 -0.11818,-0.14957 -0.24977,-0.3302 -0.42757,-0.49953 -0.0868,-0.0868 -0.17886,-0.17921 -0.27587,-0.27623 -0.10372,-0.085 -0.21273,-0.17497 -0.32703,-0.26881 -0.0575,-0.0459 -0.11677,-0.0928 -0.17709,-0.14111 -0.0624,-0.0416 -0.12665,-0.0847 -0.19191,-0.12841 -0.13159,-0.084 -0.26635,-0.18274 -0.41205,-0.26106 -0.57855,-0.33937 -1.26718,-0.61348 -2.03341,-0.82409 -0.76694,-0.20884 -1.61254,-0.34502 -2.51813,-0.40781 -0.90558,-0.06 -1.87078,-0.0388 -2.8836,0.0466 -1.25377,0.10724 -2.58198,0.31926 -3.96381,0.635 -0.49565,-1.12325 -1.02588,-2.159 -1.58397,-3.0928 -0.49813,-0.83397 -1.01988,-1.5875 -1.55434,-2.24861 0.25894,-0.37394 0.41169,-0.82727 0.41169,-1.31692 0,-1.27988 -1.037167,-2.31705 -2.317044,-2.31705 -0.659696,0 -1.253773,0.27694 -1.675696,0.71967 -0.0448,-0.0173 -0.0889,-0.0346 -0.131585,-0.0526 -0.06209,-0.0243 -0.122767,-0.0483 -0.182034,-0.0716 -0.06173,-0.018 -0.12206,-0.036 -0.180975,-0.0529 -0.118181,-0.0339 -0.230716,-0.0656 -0.33796,-0.096 -0.110421,-0.0194 -0.215196,-0.0377 -0.313973,-0.055 -0.192969,-0.0416 -0.382765,-0.0441 -0.540456,-0.0536 -0.07832,-0.003 -0.155221,-0.0106 -0.2159,-0.008 -0.05927,0.004 -0.112887,0.007 -0.160867,0.0102 -0.191558,0.012 -0.290335,0.018 -0.290335,0.018 l -0.01871,0.001 c 0,0 -0.105479,0.018 -0.309386,0.0529 -0.05115,0.009 -0.10795,0.0187 -0.171098,0.03 -0.06279,0.0124 -0.129116,0.036 -0.202493,0.0564 -0.144992,0.0455 -0.318559,0.0815 -0.499885,0.16333 -0.09278,0.036 -0.190855,0.0741 -0.294217,0.1143 -0.09843,0.0497 -0.202142,0.10231 -0.310446,0.15699 -0.05433,0.0279 -0.109712,0.0564 -0.166511,0.0857 -0.05327,0.0339 -0.10795,0.0684 -0.163335,0.10372 -0.109715,0.0734 -0.231775,0.14076 -0.343958,0.22789 -0.464963,0.33161 -0.935921,0.7867 -1.39559,1.34338 -0.458965,0.5581 -0.899583,1.22379 -1.30669,1.98261 -0.4064,0.75883 -0.771876,1.61255 -1.111601,2.53965 -0.344665,0.94686 -0.648407,1.9752 -0.908402,3.07305 -0.0042,0 -0.0081,-2.7e-4 -0.01199,-8e-4 -0.39652,-0.0123 -0.793395,-0.0339 -1.1938,-0.0318 -0.799042,-0.012 -1.607608,0.0166 -2.420408,0.0833 -0.8128,0.0653 -1.631596,0.18627 -2.451452,0.35525 -0.819857,0.17145 -1.642533,0.40181 -2.45251,0.73977 -0.807157,0.33867 -1.613255,0.77153 -2.327982,1.40617 l -0.262114,0.24695 -0.130175,0.12453 -0.121709,0.13758 -0.240241,0.27834 c -0.07973,0.0931 -0.146402,0.20109 -0.219075,0.30198 l -0.106186,0.15417 c -0.03528,0.0508 -0.07056,0.1016 -0.104068,0.16686 -0.06773,0.12312 -0.13335,0.2473 -0.197205,0.37253 l -0.04727,0.0942 c -0.01622,0.0321 -0.03246,0.0642 -0.03881,0.084 l -0.05468,0.13793 -0.05433,0.13829 -0.02752,0.0688 -0.01341,0.0346 c -0.01482,0.0402 0.01341,-0.0406 -0.03669,0.0984 -0.141817,0.48719 -0.247298,0.99236 -0.248005,1.49225 -7.93e-4,0.12418 -0.01058,0.25118 -0.0013,0.37359 l 0.02963,0.36689 0.01693,0.18345 0.0314,0.1778 0.06597,0.35489 c 0.203552,0.93627 0.595841,1.7653 1.04916,2.51742 0.455083,0.75354 0.98425,1.42769 1.545521,2.05246 0.484717,0.53587 0.990952,1.04034 1.516592,1.51201 -0.234246,0.32561 -0.459671,0.65863 -0.677688,0.9973 -0.429683,0.67592 -0.817033,1.38748 -1.116894,2.14489 -0.298098,0.75565 -0.531989,1.5554 -0.579966,2.39254 l -0.0085,0.31432 -0.0042,0.15699 0.01093,0.15804 0.02328,0.31539 c 0.0078,0.10548 0.03457,0.2092 0.05116,0.31362 0.02222,0.10477 0.03069,0.20778 0.06526,0.31397 l 0.0956,0.31714 c 0.01728,0.0508 0.03069,0.10972 0.05115,0.15346 l 0.05856,0.13653 0.117829,0.27234 c 0.02257,0.0455 0.01799,0.0325 0.02787,0.0515 l 0.02011,0.0349 0.04022,0.0692 0.08043,0.13864 c 0.05327,0.0924 0.105833,0.18556 0.173567,0.26811 l 0.192264,0.25577 c 0.06244,0.0864 0.142521,0.15698 0.213429,0.23636 0.07444,0.0751 0.142523,0.15804 0.222957,0.22648 l 0.240948,0.20532 0.121002,0.10195 0.129116,0.09 0.25894,0.17885 c 0.383821,0.2473 0.790927,0.44556 1.208617,0.60925 0.04798,1.23719 1.063625,2.22603 2.312458,2.22603 0.981075,0 1.817862,-0.61066 2.155825,-1.47179 0.460727,0.008 0.920395,0.002 1.377244,-0.0233 1.002241,-0.0529 1.993193,-0.15911 2.970389,-0.30798 0.466371,1.32327 1.025525,2.63913 1.705679,3.9303 l 0.29845,0.54786 0.321733,0.54081 c 0.104775,0.18168 0.223663,0.35807 0.339374,0.53587 0.115358,0.1778 0.230716,0.35631 0.358775,0.52952 0.492831,0.70097 1.043516,1.38501 1.700389,2.01366 0.162984,0.15769 0.340077,0.30833 0.510469,0.46178 0.175683,0.15029 0.367948,0.29105 0.55245,0.43568 0.192968,0.139 0.399343,0.26917 0.600075,0.40217 0.21731,0.11959 0.429683,0.24412 0.656873,0.35242 l 0.35066,0.1524 0.17639,0.0741 0.186618,0.061 0.37465,0.11712 c 0.125236,0.0381 0.26035,0.0586 0.390174,0.0871 l 0.197201,0.0385 0.09878,0.0187 c 0.03246,0.006 0.07514,0.009 0.112538,0.013 0.154162,0.0148 0.309034,0.0268 0.463902,0.0356 l 0.116065,0.006 0.05821,0.003 c 0.01977,7.9e-4 0.02681,-2.7e-4 0.04092,-8e-4 l 0.148166,-0.005 0.296688,-0.01 c 0.199671,-0.0141 0.08467,-0.008 0.142521,-0.013 l 0.0508,-0.007 0.1016,-0.0148 0.203552,-0.031 c 0.135821,-0.0208 0.271287,-0.0416 0.401462,-0.0815 l 0.393346,-0.11007 c 0.13194,-0.0353 0.251883,-0.0935 0.377827,-0.14075 0.12242,-0.0522 0.25153,-0.097 0.3676,-0.15805 l 0.34642,-0.18556 0.17216,-0.0952 0.1591,-0.10619 0.3168,-0.21484 c 0.20355,-0.14887 0.38946,-0.31044 0.58138,-0.46849 0.17286,-0.16757 0.35207,-0.33372 0.51646,-0.50623 0.15487,-0.17639 0.31785,-0.35067 0.4632,-0.53129 0.1397,-0.18238 0.2861,-0.363 0.41734,-0.54857 0.52916,-0.74118 0.94367,-1.51694 1.30033,-2.29728 0.35384,-0.78141 0.65758,-1.57022 0.89853,-2.36432 0.38311,-1.23825 0.66675,-2.47791 0.87559,-3.71122 0.96167,-0.0201 1.88172,-0.0804 2.74673,-0.18592 0.99448,-0.12065 1.92052,-0.30021 2.76084,-0.53269 0.39758,0.7045 1.15182,1.1811 2.01859,1.1811 1.27988,0 2.31705,-1.03717 2.31705,-2.31705 0,-0.36512 -0.0868,-0.70943 -0.23742,-1.0167 0.005,-0.005 0.0102,-0.0102 0.0152,-0.0148 0.0473,-0.0466 0.0935,-0.0924 0.139,-0.13723 0.0413,-0.049 0.0815,-0.0967 0.121,-0.14358 0.0783,-0.0945 0.1531,-0.1845 0.22401,-0.26987 0.0621,-0.0931 0.12065,-0.18133 0.17639,-0.26459 0.11606,-0.15981 0.19473,-0.33231 0.26705,-0.47272"
       style="fill:#2c2c34;fill-opacity:1;fill-rule:nonzero;stroke:none;stroke-width:0.0352777" />
    <path
       id="path5"
       d="m 93.259316,116.5419 c 0.08326,-0.0102 0.172157,-0.0201 0.265642,-0.0272 0.09349,-0.008 0.192265,-0.006 0.293158,-0.008 0.101249,-2.7e-4 0.204611,0.0123 0.309386,0.0201 0.104423,0.0109 0.209198,0.0286 0.312914,0.0526 0.103717,0.0212 0.206727,0.0494 0.306211,0.0829 0.09807,0.037 0.197556,0.0684 0.289279,0.11113 0.184502,0.0822 0.351367,0.17603 0.492829,0.26458 0.1397,0.0907 0.254706,0.17533 0.334081,0.23812 0.08008,0.0631 0.126294,0.0998 0.126294,0.0998 0,0 -0.02045,-0.0557 -0.0695,-0.14746 -0.04833,-0.0924 -0.129116,-0.21978 -0.250825,-0.35384 -0.120298,-0.13476 -0.282929,-0.27587 -0.479779,-0.39405 -0.09913,-0.0571 -0.203904,-0.11536 -0.3175,-0.1584 -0.113242,-0.043 -0.231069,-0.0797 -0.351012,-0.10936 -0.121708,-0.0233 -0.244123,-0.0388 -0.365125,-0.0469 -0.121005,-0.007 -0.240242,0.001 -0.35419,0.0116 -0.1143,0.0117 -0.222956,0.0342 -0.32385,0.0621 -0.101248,0.0247 -0.193323,0.061 -0.276931,0.0956 -0.166511,0.0713 -0.292804,0.15345 -0.375354,0.21695 -0.0829,0.0628 -0.124883,0.10478 -0.124883,0.10478 0,0 0.0575,-0.0141 0.156633,-0.0381 0.09807,-0.024 0.238125,-0.0529 0.402518,-0.0773"
       style="fill:#00007b;fill-opacity:0.9975034;fill-rule:nonzero;stroke:none;stroke-width:0.0352777" />
    <path
       id="path6"
       d="m 87.495985,151.42386 c -0.13335,0.0194 -0.283985,0.0402 -0.448379,0.0589 -0.327731,0.0427 -0.710848,0.0776 -1.120071,0.11254 -0.204962,0.0141 -0.416629,0.0261 -0.631825,0.0363 -0.214842,0.0141 -0.433917,0.0141 -0.652285,0.019 -0.218723,2.6e-4 -0.437444,0.006 -0.65264,-0.004 -0.215545,-0.004 -0.427212,-0.0116 -0.632529,-0.0204 -0.204613,-0.0166 -0.403931,-0.0208 -0.591963,-0.0388 -0.188028,-0.0166 -0.366535,-0.0286 -0.530576,-0.0469 -0.1651,-0.0148 -0.315736,-0.0321 -0.449792,-0.0483 -0.134057,-0.0145 -0.251532,-0.0268 -0.34784,-0.0402 -0.193675,-0.0222 -0.3048,-0.0353 -0.3048,-0.0353 0,0 0.103717,0.0413 0.288221,0.10724 0.09172,0.0342 0.204962,0.0702 0.335844,0.10866 0.130175,0.0402 0.278693,0.0818 0.442383,0.11924 0.162984,0.0416 0.341135,0.0794 0.530932,0.11218 0.189441,0.037 0.390877,0.0646 0.59972,0.0907 0.20955,0.0187 0.425805,0.048 0.646996,0.0536 0.220837,0.0137 0.445559,0.0127 0.670277,0.0169 0.224719,-0.01 0.44944,-0.0141 0.669925,-0.0328 0.221192,-0.0102 0.43674,-0.0452 0.645584,-0.0691 0.416631,-0.0621 0.801864,-0.13829 1.125714,-0.22966 0.162984,-0.0409 0.310092,-0.0864 0.43956,-0.12982 0.129824,-0.0413 0.242007,-0.0804 0.333024,-0.11677 0.182737,-0.0706 0.285395,-0.1143 0.285395,-0.1143 0,0 -0.11077,0.0155 -0.304094,0.0423 -0.0956,0.0159 -0.212725,0.031 -0.346781,0.0483"
       style="fill:#00007b;fill-opacity:0.9975034;fill-rule:nonzero;stroke:none;stroke-width:0.0352777" />
    <path
       id="path8"
       d="m 115.68646,140.92202 c 0.0187,-0.22719 0.006,-0.41628 -0.0124,-0.54645 -0.0173,-0.13018 -0.036,-0.2025 -0.036,-0.2025 0,0 -0.0141,0.073 -0.0384,0.20038 -0.0243,0.1263 -0.0649,0.30374 -0.12489,0.50976 -0.0631,0.20532 -0.14746,0.43851 -0.25894,0.67628 -0.0543,0.11959 -0.12347,0.23636 -0.18909,0.35631 -0.0691,0.11818 -0.14605,0.23424 -0.2293,0.34536 -0.0811,0.11219 -0.16863,0.22014 -0.2607,0.32174 -0.0945,0.0988 -0.18556,0.19932 -0.28364,0.28716 -0.0988,0.0861 -0.19297,0.17286 -0.28998,0.24624 -0.096,0.0741 -0.18979,0.14146 -0.27799,0.20285 -0.1785,0.11888 -0.3362,0.2106 -0.44944,0.27128 -0.11395,0.0614 -0.17991,0.0967 -0.17991,0.0967 0,0 0.0748,-0.004 0.20425,-0.0268 0.12947,-0.0215 0.31398,-0.0656 0.52494,-0.15134 0.10477,-0.0437 0.21907,-0.0935 0.33196,-0.15981 0.11501,-0.0635 0.23248,-0.13829 0.34678,-0.22578 0.1136,-0.0878 0.22931,-0.18274 0.33549,-0.29139 0.10548,-0.10901 0.20638,-0.22613 0.30057,-0.3489 0.0889,-0.12665 0.17039,-0.25788 0.24342,-0.39088 0.0727,-0.13335 0.12805,-0.27234 0.17815,-0.4071 0.097,-0.27129 0.14746,-0.53622 0.1651,-0.76306"
       style="fill:#00007b;fill-opacity:0.9975034;fill-rule:nonzero;stroke:none;stroke-width:0.0352777" />
    <path
       id="path10"
       d="m 116.04735,141.98176 c -0.0219,0.0385 -0.0529,0.0931 -0.0928,0.15734 -0.0314,0.0663 -0.0706,0.14253 -0.11395,0.22261 -0.036,0.0829 -0.0769,0.17004 -0.11959,0.25611 -0.0335,0.09 -0.0691,0.17921 -0.10513,0.26212 -0.0289,0.0864 -0.0575,0.16757 -0.0847,0.23565 -0.0198,0.0727 -0.0381,0.133 -0.0518,0.17498 -0.01,0.0448 -0.0155,0.0702 -0.0155,0.0702 0,0 0.0205,-0.0162 0.0568,-0.0445 0.0325,-0.0307 0.0783,-0.0751 0.13194,-0.13052 0.0476,-0.0593 0.10054,-0.13018 0.15628,-0.20779 0.0473,-0.0819 0.0953,-0.17075 0.14111,-0.2607 0.0349,-0.0952 0.067,-0.19086 0.0942,-0.28152 0.0187,-0.0935 0.0346,-0.18062 0.0452,-0.25576 0.004,-0.0773 0.005,-0.14112 0.005,-0.18592 -0.004,-0.0455 -0.006,-0.0716 -0.006,-0.0716 0,0 -0.0148,0.0215 -0.0406,0.0593"
       style="fill:#00007b;fill-opacity:0.9975034;fill-rule:nonzero;stroke:none;stroke-width:0.0352777" />
    <path
       id="path16"
       d="m 84.025358,127.33232 c -0.393348,0.009 -0.853016,0.0314 -1.344083,0.0871 -0.490008,0.0646 -1.00965,0.16616 -1.518708,0.31362 -0.25259,0.0808 -0.50165,0.17216 -0.742244,0.27305 -0.239183,0.10372 -0.471313,0.21414 -0.688975,0.33443 -0.4318,0.24695 -0.806098,0.52388 -1.10349,0.78635 -0.291393,0.26952 -0.505531,0.52105 -0.643818,0.70449 -0.07056,0.0907 -0.11783,0.16792 -0.152755,0.21837 -0.03422,0.0508 -0.05256,0.078 -0.05256,0.078 0,0 0.02188,-0.0244 0.06244,-0.0702 0.04163,-0.0452 0.09807,-0.115 0.179562,-0.19473 0.153813,-0.16757 0.388408,-0.39405 0.697441,-0.62865 0.304449,-0.23918 0.683684,-0.48719 1.115484,-0.70273 0.213431,-0.11183 0.440973,-0.21414 0.675571,-0.3101 0.235654,-0.0928 0.47907,-0.17603 0.725662,-0.24941 0.491773,-0.15381 0.997657,-0.26388 1.477082,-0.33761 0.478366,-0.0822 0.931333,-0.13088 1.320093,-0.16122 0.388763,-0.0377 0.71473,-0.0572 0.942975,-0.0688 0.2286,-0.0148 0.35913,-0.0233 0.35913,-0.0233 0,0 -0.13053,-0.009 -0.35913,-0.0254 -0.228952,-0.0106 -0.555977,-0.0229 -0.949677,-0.0233"
       style="fill:#00007b;fill-opacity:0.9975034;fill-rule:nonzero;stroke:none;stroke-width:0.0352777" />
    <path
       id="path19"
       d="m 117.7047,125.17684 c -0.0346,-0.0854 -0.0766,-0.18062 -0.12947,-0.28151 -0.10442,-0.20215 -0.25083,-0.4244 -0.4191,-0.65546 -0.17956,-0.22225 -0.38947,-0.4445 -0.61525,-0.65053 -0.23671,-0.19332 -0.48718,-0.3683 -0.73342,-0.51364 -0.25329,-0.13265 -0.49459,-0.24483 -0.70979,-0.31891 -0.10724,-0.0374 -0.20779,-0.0653 -0.29739,-0.0871 -0.0885,-0.024 -0.16616,-0.0434 -0.23142,-0.0547 -0.12983,-0.0212 -0.20426,-0.0332 -0.20426,-0.0332 0,0 0.0691,0.0289 0.1905,0.0797 0.0614,0.0215 0.1337,0.0533 0.2159,0.0914 0.0829,0.036 0.17498,0.0794 0.27234,0.13299 0.20073,0.0921 0.42263,0.22437 0.65158,0.37501 0.23072,0.14816 0.46391,0.32491 0.68298,0.51752 0.22225,0.18839 0.43109,0.39335 0.61137,0.60008 0.18238,0.20461 0.34536,0.40463 0.46566,0.58984 0.0674,0.0885 0.12347,0.17322 0.17145,0.25012 0.0497,0.0755 0.0917,0.14252 0.12206,0.20038 0.0681,0.11218 0.10689,0.17639 0.10689,0.17639 0,0 -0.0229,-0.0716 -0.0628,-0.19721 -0.0204,-0.0628 -0.0508,-0.13652 -0.0878,-0.22119"
       style="fill:#00007b;fill-opacity:0.9975034;fill-rule:nonzero;stroke:none;stroke-width:0.0352777" />
    <text
       xml:space="preserve"
       style="font-style:normal;font-weight:normal;font-size:14.1111px;line-height:1.25;font-family:sans-serif;fill:#000000;fill-opacity:1;stroke:none;stroke-width:0.264583"
       x="90.397133"
       y="138.41521"
       id="text4"><tspan
         sodipodi:role="line"
         id="tspan4"
         style="font-style:normal;font-variant:normal;font-weight:normal;font-stretch:normal;font-size:14.1111px;font-family:malayalam;-inkscape-font-specification:malayalam;stroke-width:0.264583"
         x="90.397133"
         y="138.41521">--.</tspan></text>
  </g>
</svg>
